<svg id="Capa_1" enable-background="new 0 0 512 512"  viewBox="0 0 512 512"  xmlns="http://www.w3.org/2000/svg"><g><path d="m376.451 226c-48.252 0-90-32.446-101.543-78.911l-4.277-14.487-14.531 3.53-14.502-3.53-3.604 14.487c-11.543 46.465-53.291 78.911-101.543 78.911h-45.351l3.633 17.959c11.865 58.799 54.888 104.921 109.649 123.256-14.09 13.643-22.93 32.67-22.93 53.785v91h150v-91c0-21.116-8.84-40.142-22.93-53.785 54.761-18.334 97.784-64.457 109.649-123.256l3.632-17.959z" fill="#e1e6f0"/><path d="m308.521 367.215c54.761-18.334 97.784-64.457 109.649-123.256l3.633-17.959h-45.352c-48.252 0-90-32.446-101.543-78.911l-4.277-14.487-14.18 3.444v375.954h75v-91c0-21.116-8.84-40.142-22.93-53.785z" fill="#cfd7e6"/><g id="Bouquet_1_"><path d="m419.049 153.241-8.672-10.137-11.104 7.441c-14.033 9.448-32.637 9.917-47.402 1.289-16.289-9.478-24.844-27.7-21.826-46.436l-147.891-4.043c2.373 18.003-6.299 35.596-21.943 44.722-13.887 7.925-30.557 7.954-44.766.176l-10.313-5.654-7.969 8.672c-23.026 25.167-35.712 57.73-35.712 91.729v15h75c51.87 0 97.59-29.438 120-73.995 22.41 44.557 68.13 73.995 120 73.995h75v-15c0-32.651-11.191-63.003-32.402-87.759z" fill="#f3f5f9"/></g><path d="m410.377 143.104-11.104 7.441c-14.033 9.448-32.637 9.917-47.402 1.289-16.289-9.478-24.844-27.7-21.826-46.436l-73.594-2.012v78.618c22.41 44.557 68.13 73.995 120 73.995h75v-15c0-32.651-11.191-63.003-32.402-87.759z" fill="#e1e6f0"/><path d="m344.357 164.799c29.053 17.096 66.034 6.378 82.192-21.899l30-51.899c-6.577-3.706-13.74-6.123-21.313-7.192l-13.975-1.963 1.113-14.077c.908-11.353-.117-22.412-3.018-32.871-10.415 2.959-20.464 7.661-29.839 13.975l-11.572 7.793-8.613-10.972c-4.629-5.903-10.459-10.972-16.875-14.692l-30 51.914c-3.706 6.768-6.006 13.213-7.207 20.083-4.057 24.93 7.339 49.173 29.107 61.8z" fill="#e63a57"/><path d="m316.451 30v61c0 4.501-.3 8.401-1.199 12.001-.601 2.999-1.201 5.4-2.1 8.099-12.601 37.5-49.2 38.701-56.7 39.901-1.834-.917-51.644-.618-59.399-51.301 2.699 24.6-9.001 47.401-29.401 59.401-28.2 16.199-64.799 7.2-82.2-21.901l-30-52.2c6.601-3.9 13.5-6.299 21.301-7.2l13.799-2.1-.899-13.799c-.901-11.4 0-22.5 2.999-32.701 10.501 2.701 20.4 7.5 29.401 13.801l11.699 7.798 8.701-11.1c4.799-5.999 10.499-10.8 17.1-14.7l30 52.2c4.199 7.202 6.899 16.201 7.5 21-.601-2.999-.601-5.099-.601-7.2v-60.999c7.5 0 14.7 1.5 21.899 4.2l12.9 5.4 6.301-12.599c4.8-10.201 11.399-19.501 18.899-27.001 7.5 7.5 14.099 16.8 18.9 27.001l6.301 12.599 12.9-5.4c7.2-2.7 14.399-4.2 21.899-4.2z" fill="#ff5959"/><g><path d="m391.451 436h-30c0-33.091-26.924-60-60-60h-90c-33.076 0-60 26.909-60 60h-30c0-49.629 40.371-90 90-90h90c49.629 0 90 40.371 90 90z" fill="#8cd96b"/></g><path d="m316.451 30v61c0 4.501-.3 8.401-1.199 12.001-.601 2.999-1.201 5.4-2.1 8.099-12.601 37.5-49.2 38.701-56.7 39.901v-151.001c7.5 7.5 14.099 16.8 18.9 27.001l6.301 12.599 12.9-5.4c7.199-2.7 14.398-4.2 21.898-4.2z" fill="#e63a57"/><path d="m301.451 346h-45v30h45c33.076 0 60 26.909 60 60h30c0-49.629-40.371-90-90-90z" fill="#5ab267"/></g></svg>