<svg  viewBox="0 0 512 512"  xmlns="http://www.w3.org/2000/svg"><g id="Filled"><g><path d="m439.939 184-184-136-184 136s-7.994 164.317 159.184 216l-21.729 61.32a20 20 0 0 0 18.851 26.68h55.388a20 20 0 0 0 18.852-26.68l-21.73-61.32c167.178-51.683 159.184-216 159.184-216z" fill="#ffefed"/><path d="m160 120h192v64h-192z" fill="#fdc069"/><path d="m255.939 439.6-47.8-47.8a28 28 0 0 1 39.6-39.6l8.2 8.2 8.2-8.2a28 28 0 0 1 39.6 39.6z" fill="#f15a57"/><g fill="#fdc069"><ellipse cx="313.404" cy="249.923" rx="32" ry="64.005" transform="matrix(.97 -.244 .244 .97 -51.439 83.872)"/><ellipse cx="201.404" cy="249.923" rx="64.005" ry="32" transform="matrix(.244 -.97 .97 .244 -90.051 384.38)"/><path d="m341.775 149.091a71.651 71.651 0 0 0 -13.836 39.3 71.993 71.993 0 0 0 111.122-57.147 72 72 0 0 0 -97.286 17.847z"/><path d="m85.775 170.54a71.651 71.651 0 0 1 -13.836-39.3 71.993 71.993 0 0 1 111.122 57.147 72 72 0 0 1 -97.286-17.847z"/><path d="m169.867 72.053a39.925 39.925 0 0 1 -5.294 12.772 40.02 40.02 0 0 1 -38.829-61.179 40.019 40.019 0 0 1 44.123 48.407z"/></g><path d="m183.939 80a24 24 0 0 0 -48 0 24 24 0 0 0 0 48 24 24 0 0 0 48 0 24 24 0 0 0 0-48z" fill="#f78ac8"/><path d="m342.011 72.053a39.925 39.925 0 0 0 5.294 12.772 40.02 40.02 0 0 0 38.829-61.179 40.019 40.019 0 0 0 -44.123 48.407z" fill="#fdc069"/><path d="m327.939 80a24 24 0 0 1 48 0 24 24 0 0 1 0 48 24 24 0 0 1 -48 0 24 24 0 0 1 0-48z" fill="#f78ac8"/><path d="m279.939 48a24 24 0 0 0 -48 0 24 24 0 1 0 0 48 24 24 0 0 0 48 0 24 24 0 0 0 0-48z" fill="#f78ac8"/><path d="m183.939 232a24 24 0 0 1 -48 0 24 24 0 1 1 0-48 24 24 0 0 1 48 0 24 24 0 0 1 0 48z" fill="#f78ac8"/><path d="m327.939 232a24 24 0 1 0 48 0 24 24 0 1 0 0-48 24 24 0 0 0 -48 0 24 24 0 0 0 0 48z" fill="#f78ac8"/><path d="m279.939 264a24 24 0 1 1 -48 0 24 24 0 1 1 0-48 24 24 0 0 1 48 0 24 24 0 1 1 0 48z" fill="#f78ac8"/><path d="m287.939 152a32 32 0 1 0 -32-32 32 32 0 1 0 -32 32 32 32 0 1 0 32 32 32 32 0 1 0 32-32z" fill="#f15a57"/><circle cx="255.939" cy="152" fill="#fff" r="32"/><g><path d="m149.326 346.166c-37.982-33.885-54.787-75.914-62.2-105.2-8.106-32.042-7.087-56.34-7.076-56.582l-7.989-.384-7.991-.389c-.051 1.066-1.171 26.485 7.406 60.712 7.924 31.628 26.015 77.041 67.2 113.782z"/><path d="m448.052 183.611-15.982.778c.008.153.7 15.573-3.195 38.257l15.77 2.708c4.188-24.397 3.44-41.046 3.407-41.743z"/><path d="m319.89 375.545q.169-1.757.171-3.545a36 36 0 0 0 -61.456-25.456l-2.544 2.545-2.544-2.545a36 36 0 0 0 -61.456 25.456q0 1.784.171 3.539a214.491 214.491 0 0 1 -27.522-16.966l-9.42 12.933a238.4 238.4 0 0 0 48.389 27.023l6.225 6.225a51.261 51.261 0 0 1 -8.119 6.65c-6.147 4.083-12.953 7.2-20.16 10.5-4.8 2.2-9.768 4.471-14.6 7.085-16.216 8.774-26.508 19.74-30.589 32.593l15.25 4.842c2.784-8.769 10.506-16.629 22.952-23.362 4.363-2.361 8.872-4.424 13.646-6.609 7.452-3.411 15.158-6.938 22.354-11.718q2.335-1.551 4.512-3.265l-13.175 37.181a28 28 0 0 0 26.392 37.349h19.633v-16h-19.633a12 12 0 0 1 -11.311-16.008l13.628-38.458 19.72 19.72a8 8 0 0 0 11.314 0l19.72-19.72 13.628 38.458a12 12 0 0 1 -11.311 16.008h-19.755v16h19.755a28 28 0 0 0 26.392-37.352l-13.174-37.178q2.166 1.7 4.511 3.262c7.2 4.78 14.9 8.307 22.354 11.718 4.774 2.185 9.283 4.249 13.646 6.609 12.446 6.733 20.168 14.593 22.952 23.362l15.25-4.842c-4.081-12.853-14.373-23.82-30.589-32.593-4.832-2.614-9.8-4.887-14.6-7.085-7.207-3.3-14.014-6.414-20.162-10.5a51.134 51.134 0 0 1 -8.121-6.647l6.229-6.228c87.4-36.542 120.468-105.276 132.805-156.661l-15.558-3.736c-10.599 44.154-37.651 102.078-105.8 137.416zm-63.829 52.739-42.142-42.142a20 20 0 1 1 28.281-28.284l8.2 8.2a8 8 0 0 0 11.314 0l8.2-8.2a20 20 0 0 1 28.286 28.284z"/><path d="m79.442 175.266a79.959 79.959 0 0 0 26.158 22.934 32.012 32.012 0 0 0 23.279 40.986 32.057 32.057 0 0 0 31.182 24.814h.027a87.665 87.665 0 0 0 19.629 53.034 8 8 0 0 0 9.319 2.34 88.426 88.426 0 0 0 41.519-36.074 31.974 31.974 0 0 0 52.607-2.3 88.255 88.255 0 0 0 42.854 38.375 8 8 0 0 0 9.319-2.34 87.589 87.589 0 0 0 19.634-53.165 32.079 32.079 0 0 0 28.279-24.682 32.013 32.013 0 0 0 23.143-41.4 80.057 80.057 0 0 0 40.784-66.188 8 8 0 0 0 -3.631-7.059 80.223 80.223 0 0 0 -36.485-12.579 32.012 32.012 0 0 0 -17.117-36.792 48.329 48.329 0 0 0 9.415-40.5 47.84 47.84 0 0 0 -6.357-15.322 8 8 0 0 0 -5.73-3.637 48.043 48.043 0 0 0 -53.091 37.762 32.09 32.09 0 0 0 -13.306 19.347 32.064 32.064 0 0 0 -9.125 3.659 32.022 32.022 0 0 0 -24.5-35.666 32.005 32.005 0 0 0 -62.373 0 32.032 32.032 0 0 0 -24.509 35.618 31.756 31.756 0 0 0 -9.121-3.628 32.091 32.091 0 0 0 -13.305-19.33 48.043 48.043 0 0 0 -53.091-37.762 8.006 8.006 0 0 0 -5.73 3.637 48.063 48.063 0 0 0 3.034 55.836 32.014 32.014 0 0 0 -17.11 36.7 79.994 79.994 0 0 0 -37.343 12.652 8 8 0 0 0 -3.631 7.059 79.642 79.642 0 0 0 15.373 43.671zm64.619 56.734a8 8 0 0 0 -8-8 16 16 0 0 1 0-32 8 8 0 0 0 8-8 16 16 0 0 1 32 0 8 8 0 0 0 8 8c.27 0 .54.007.808.021a40.037 40.037 0 0 0 13.688 22.771 16.032 16.032 0 0 1 -14.5 9.208 8 8 0 0 0 -8 8 16 16 0 0 1 -32 0zm56.025-80a40.243 40.243 0 0 0 -12.528 15.646 32.242 32.242 0 0 0 -12.016-11.646 32.2 32.2 0 0 0 14.058-15.7 40.289 40.289 0 0 0 10.486 11.7zm122.432-11.7a32.2 32.2 0 0 0 14.063 15.7 32.245 32.245 0 0 0 -12.017 11.646 40.243 40.243 0 0 0 -12.528-15.646 40.289 40.289 0 0 0 10.482-11.7zm-98.457 67.7a24 24 0 0 1 -6.971-46.967 40.133 40.133 0 0 0 29.938 29.938 24.043 24.043 0 0 1 -22.967 17.029zm70.971-46.967a24 24 0 1 1 -29.938 29.938 40.133 40.133 0 0 0 29.938-29.938zm17.029-41.033a24.043 24.043 0 0 1 -17.029 22.967 40.133 40.133 0 0 0 -29.938-29.938 24 24 0 0 1 46.967 6.971zm-68.04 11.232a23.988 23.988 0 1 1 -8.754 8.774l-13.85-8.012a39.86 39.86 0 0 0 -4.325 10.974 24 24 0 1 1 29.937-29.937 39.846 39.846 0 0 0 -11.05 4.369zm-55.573 170.741a71.553 71.553 0 0 1 -12.359-42.283 32.114 32.114 0 0 0 15.159-20.507 31.966 31.966 0 0 0 9.125-3.66 32.026 32.026 0 0 0 19.435 34.038 72.317 72.317 0 0 1 -31.36 32.412zm83.613-37.973a16 16 0 0 1 -32 0 8 8 0 0 0 -8-8 16 16 0 0 1 0-32v-.8a40.069 40.069 0 0 0 24-15.221 40.069 40.069 0 0 0 24 15.221v.8a16 16 0 0 1 0 32 8 8 0 0 0 -8 8zm54.539 37.974a72.156 72.156 0 0 1 -31.889-33.531 32.023 32.023 0 0 0 17.035-32.943 32.014 32.014 0 0 0 9.127 3.676 32.122 32.122 0 0 0 18.119 22.031 71.5 71.5 0 0 1 -12.392 40.767zm49.461-77.974a8 8 0 0 0 -8 8 16 16 0 0 1 -32 0 8 8 0 0 0 -8-8 16.069 16.069 0 0 1 -14.493-9.21 40.041 40.041 0 0 0 13.685-22.77c.268-.013.538-.02.808-.02a8 8 0 0 0 8-8 16 16 0 1 1 32 0 8 8 0 0 0 8 8 16 16 0 0 1 0 32zm42.832-58.187a64.039 64.039 0 0 1 -21.286 18.548 31.959 31.959 0 0 0 -14.359-7.548 32.127 32.127 0 0 0 -15.707-20.813 32.127 32.127 0 0 0 15.707-20.813 31.967 31.967 0 0 0 14.317-7.51 63.122 63.122 0 0 1 33.251 7.865 63.691 63.691 0 0 1 -11.923 30.271zm-44.703-133.713a33.262 33.262 0 0 1 7.193-.777 32.018 32.018 0 0 1 -2.278 31.588 32.012 32.012 0 0 0 -26.04-14.9 32.038 32.038 0 0 1 21.125-15.911zm-46.129 55.9a8 8 0 0 0 8-8 16 16 0 0 1 32 0 8 8 0 0 0 8 8 16 16 0 0 1 0 32 8 8 0 0 0 -8 8 16 16 0 0 1 -32 0 8 8 0 0 0 -8-8 39.857 39.857 0 0 0 -11.047-27.572 16.031 16.031 0 0 1 11.047-4.428zm-96-32a8 8 0 0 0 8-8 16 16 0 0 1 32 0 8 8 0 0 0 8 8 16 16 0 0 1 13.624 24.394 40.008 40.008 0 0 0 -37.624 15.631 40.01 40.01 0 0 0 -37.625-15.631 16 16 0 0 1 13.625-24.394zm-103.682-17.838a32.085 32.085 0 0 1 2.36-6.839 32.94 32.94 0 0 1 7.193.777 32.06 32.06 0 0 1 21.121 15.916 32.014 32.014 0 0 0 -26.053 14.924 31.893 31.893 0 0 1 -4.621-24.778zm7.682 49.838a8 8 0 0 0 8-8 16 16 0 0 1 32 0 8 8 0 0 0 8 8 15.921 15.921 0 0 1 11.056 4.418 39.859 39.859 0 0 0 -11.056 27.582 8 8 0 0 0 -8 8 16 16 0 0 1 -32 0 8 8 0 0 0 -8-8 16 16 0 0 1 0-32zm-21.452 39.724a31.949 31.949 0 0 0 14.266 7.463 32.121 32.121 0 0 0 15.707 20.813 32.121 32.121 0 0 0 -15.707 20.813 31.969 31.969 0 0 0 -14.68 7.845 64.075 64.075 0 0 1 -33.766-49.109 64.064 64.064 0 0 1 34.18-7.825z"/><path d="m152.061 96h16v16h-16z"/><path d="m344.061 96h16v16h-16z"/><path d="m248.061 64h16v16h-16z"/><path d="m152.061 200h16v16h-16z"/><path d="m344.061 200h16v16h-16z"/><path d="m248.061 232h16v16h-16z"/></g></g></g></svg>