<svg  viewBox="0 0 512 512"  xmlns="http://www.w3.org/2000/svg"><g fill="#12acab"><path d="m470.710938 2.832031c12.898437 12.902344 12.898437 33.816407 0 46.714844-12.902344-12.898437-12.902344-33.8125 0-46.714844zm0 0"/><path d="m429.417969 57.804688c0 18.246093 14.789062 33.035156 33.035156 33.035156 0-18.246094-14.789063-33.035156-33.035156-33.035156zm0 0"/><path d="m512 49.546875c0 18.246094-14.789062 33.035156-33.03125 33.035156 0-18.246093 14.789062-33.035156 33.03125-33.035156zm0 0"/><path d="m431.421875 123.625-10.261719-16.269531c16.535156-4.132813 42.832032-24.136719 47.574219-40.964844l-5.660156-13.6875 15.265625-6.308594 6.679687 16.160157c.625 1.511718.785157 3.171874.464844 4.777343-4.710937 23.5625-30.480469 50.394531-54.0625 56.292969zm0 0"/><path d="m297.289062 115.613281-16.515624 49.546875 24.773437-8.257812 16.519531-41.289063zm0 0"/><path d="m189.933594 115.613281 16.519531 41.289063 16.515625-24.773438-8.257812-16.515625zm0 0"/><path d="m82.582031 49.546875c0 18.246094-14.789062 33.035156-33.035156 33.035156 0-18.246093 14.789063-33.035156 33.035156-33.035156zm0 0"/><path d="m0 74.324219c7.507812 16.625 27.070312 24.019531 43.695312 16.515625-7.503906-16.628906-27.066406-24.023438-43.695312-16.515625zm0 0"/><path d="m33.03125 2.832031c12.902344 12.902344 12.902344 33.816407 0 46.714844-12.898438-12.898437-12.898438-33.8125 0-46.714844zm0 0"/><path d="m87.128906 122.277344c-30.132812-12.808594-55.902344-39.640625-60.613281-63.203125l-1.582031-7.90625 16.195312-3.242188 1.582032 7.90625c3.445312 17.226563 24.574218 39.1875 48.425781 50.421875zm0 0"/></g><path d="m434.042969 172.347656 20.148437-40.21875-10.980468-8.257812-22.050782-16.515625-41.289062 24.773437 16.515625 24.773438z" fill="#ef4983"/><path d="m506.136719 229.738281c0 10.902344-3.714844 21.636719-10.738281 30.472657l-16.433594 20.5625-14.78125-8.421876c-14.121094-8.09375-29.148438-14.203124-44.675782-18.332031-15.523437-4.128906-31.710937-6.277343-47.894531-6.277343-13.378906 0-26.59375 2.148437-39.144531 6.359374-12.550781 4.210938-24.445312 10.320313-35.179688 18.414063-10.734374 8.09375-18.496093 14.203125-26.921874 18.414063-8.425782 4.214843-17.507813 6.359374-30.886719 6.359374-13.375 0-22.460938-2.144531-30.882813-6.359374-8.425781-4.210938-16.1875-10.320313-26.921875-18.414063-10.738281-8.09375-18.5-14.203125-26.921875-18.414063-8.425781-4.210937-17.507812-6.359374-30.886718-6.359374-32.453126 0-47.894532 8.507812-76.058594 24.609374l-14.78125 8.421876-18.085938-49.710938c-4.539062-12.386719-4.953125-25.601562-1.816406-37.824219l19.902344 4.957031 33.035156 24.773438 49.546875-8.257812 8.257813-41.289063-10.898438-16.433594 26.835938 14.203125c14.535156 7.679688 30.0625 12.632813 45.914062 14.699219l4.214844-4.214844 10.734375 5.367188 38.8125 19.410156 33.035156-8.261719v-29.480468c20.726563-11.726563 44.015625-17.753907 67.382813-17.753907 6.03125 0 12.140624.414063 18.167968 1.238281l5.285156 21.222657v16.515625l30.554688 32.042968 52.027344.992188 16.515625-41.292969.992187-.988281 7.347656 2.144531c15.441407 4.460938 27.746094 16.269531 32.785157 31.464844 1.738281 5.039063 2.5625 10.238281 2.5625 15.441406zm0 0" fill="#12acab"/><path d="m206.453125 8.257812-24.777344 8.257813v-16.515625l-57.804687 24.773438 7.433594 8.917968.824218-.660156 12.386719 16.515625 20.644531 24.777344 49.550782-24.777344zm-24.777344 41.289063h-33.03125l8.257813-33.03125 24.773437 16.515625zm0 0" fill="#ef4983"/><path d="m181.675781 33.03125v16.515625h-33.03125l8.257813-33.03125zm0 0" fill="#e01a63"/><path d="m165.160156 66.0625-41.289062 8.261719-24.773438-16.519531 33.03125-24.773438 12.386719 16.515625zm0 0" fill="#e01a63"/><path d="m189.933594 115.613281h-33.03125l-33.03125-41.289062 41.289062-8.261719v8.261719zm0 0" fill="#ef4983"/><path d="m239.484375 41.289062-8.257813 24.773438v33.035156l-16.515624 16.515625h-24.777344l-24.773438-41.289062 49.550782-24.777344-8.257813-16.515625zm0 0" fill="#f67fa4"/><path d="m112.96875 156.984375 10.902344 16.433594-8.257813 41.292969-49.550781 8.257812-33.03125-24.777344-19.902344-4.953125-13.128906-3.304687 16.515625-33.03125 16.515625 16.515625h41.292969l13.375-26.835938 11.398437-22.710937-23.207031-9.25 23.207031-15.523438 24.773438 33.03125-16.515625 16.515625 5.449219 8.257813.082031.082031zm0 0" fill="#ef4983"/><path d="m74.324219 173.417969h-41.292969l-16.515625-16.515625 19.488281-9.742188 5.699219 7.59375 7.84375 10.40625zm0 0" fill="#e01a63"/><path d="m74.324219 173.417969-24.777344-8.257813-7.84375-10.40625-5.699219-7.59375 30.058594-15.03125 2.726562 13.460938zm0 0" fill="#ef4983"/><path d="m99.097656 123.871094-11.398437 22.710937-13.375 26.835938-5.535157-27.828125-2.726562-13.460938-30.058594 15.03125-11.230468-15.03125 33.03125-24.773437 18.085937 7.265625zm0 0" fill="#f67fa4"/><path d="m272.515625 148.644531v49.546875l-33.03125 8.261719-38.8125-19.410156c3.878906.082031 7.84375 0 11.726563-.164063l-4.128907-5.53125 39.472657-7.929687v-24.773438l-57.808594 8.257813 33.035156-24.773438zm0 0" fill="#ef4983"/><path d="m247.742188 148.644531v24.773438l-39.472657 7.929687-7.679687-10.324218-10.65625-14.121094zm0 0" fill="#e01a63"/><path d="m379.871094 49.546875-5.863282 8.835937-10.652343 15.941407h-41.289063l33.03125-24.777344-16.515625-16.515625-30.886719 7.765625-10.40625-24.28125 41.292969-16.515625zm0 0" fill="#ef4983"/><path d="m355.097656 49.546875-33.03125 24.777344-14.371094-33.527344 30.886719-7.765625zm0 0" fill="#e01a63"/><path d="m404.644531 66.0625-8.257812 24.777344-41.289063 8.257812-16.515625 24.773438-57.808593-8.257813-16.515626-74.324219h41.289063l-8.257813 33.035157h66.066407l10.652343-15.941407zm0 0" fill="#f67fa4"/><path d="m322.066406 74.324219h-24.777344l8.257813-33.035157 2.148437-.492187zm0 0" fill="#ef4983"/><path d="m462.453125 181.675781 24.773437-24.773437-16.515624-33.03125h-33.035157l-6.402343 48.476562z" fill="#e01a63"/><path d="m382.183594 157.5625-18.828125 15.855469-8.257813-33.03125 21.71875-9.414063zm0 0" fill="#ef4983"/><path d="m429.417969 148.644531-33.03125 8.257813 8.257812-33.03125h16.515625zm0 0" fill="#e01a63"/><path d="m313.808594 512h-115.617188l16.519532-74.324219h28.902343l-14.851562 29.699219c-3.058594 6.117188.011719 13.527344 6.5 15.691406 6.554687 2.183594 13.507812-2.003906 14.644531-8.816406l6.09375-36.574219 6.09375 36.574219c1.136719 6.8125 8.089844 11 14.644531 8.816406 6.488281-2.164062 9.554688-9.574218 6.496094-15.691406l-14.847656-29.699219h28.902343zm0 0" fill="#7cdfe0"/><path d="m289.03125 404.644531h-74.320312l-50.789063-66.0625-4.046875-5.289062c-33.609375-33.609375-79.277344-52.519531-126.84375-52.519531l14.78125-8.421876c28.160156-16.105468 43.605469-24.609374 76.058594-24.609374 13.378906 0 22.460937 2.144531 30.882812 6.355468 8.425782 4.214844 16.1875 10.324219 26.921875 18.417969 10.488281 7.925781 18.167969 13.957031 26.425781 18.167969l27.5 27.496094c24.28125 24.28125 42.53125 53.847656 53.429688 86.464843zm0 0" fill="#7cdfe0"/><path d="m462.453125 181.675781-41.292969 16.515625-57.804687-24.773437 18.828125-15.855469 74.320312 22.378906h.082032zm0 0" fill="#f67fa4"/><path d="m115.613281 214.710938 16.515625 33.03125-24.773437 8.257812-24.773438-41.289062zm0 0" fill="#7cdfe0"/><path d="m239.484375 256h24.773437v41.289062h-24.773437zm0 0" fill="#7cdfe0"/><path d="m371.613281 198.191406-16.515625 57.808594 24.773438-8.257812 8.257812-33.03125zm0 0" fill="#7cdfe0"/><path d="m346.839844 429.003906c0 10.839844 4.304687 21.238282 11.96875 28.902344l54.09375 54.09375 57.804687-57.804688-54.089843-54.09375c-7.667969-7.664062-18.0625-11.972656-28.902344-11.972656-22.578125 0-40.875 18.300782-40.875 40.875zm0 0" fill="#e01a63"/><path d="m379.871094 132.128906-3.054688-1.15625 5.367188 26.589844 80.269531 24.113281-66.066406-24.773437zm0 0" fill="#e01a63"/><path d="m363.355469 173.417969v16.515625l30.554687 32.042968 52.023438.992188 16.519531-41.292969-41.292969 16.515625zm0 0" fill="#e01a63"/><path d="m247.742188 264.257812-8.257813-57.804687 33.03125-8.261719 24.773437 8.261719-16.515624 49.546875zm0 0" fill="#e01a63"/><path d="m165.160156 206.453125h74.324219l-38.8125-19.410156zm0 0" fill="#e01a63"/><path d="m74.324219 173.417969h49.546875l-8.257813 41.292969-49.550781 8.257812zm0 0" fill="#f67fa4"/><path d="m330.324219 198.191406-33.035157 8.261719-16.515624 49.546875-33.03125 8.257812-33.03125-8.257812-33.035157-49.546875h-16.515625l35.429688-35.429687 7.679687 10.324218 4.128907 5.53125c-3.882813.164063-7.847657.25-11.726563.164063l38.8125 19.410156 33.03125-8.261719v-33.03125h24.773437zm0 0" fill="#f67fa4"/><path d="m478.96875 280.773438c-23.785156 0-47.074219 4.707031-68.625 13.625-21.554688 9.003906-41.375 22.050781-58.21875 38.898437l-4.046875 5.285156-50.789063 66.0625h-8.257812c-10.898438-32.617187-29.148438-62.183593-53.429688-86.460937l-27.5-27.5c.167969.082031.332032.164062.496094.246094 8.425782 4.214843 17.507813 6.359374 30.886719 6.359374s22.460937-2.144531 30.882813-6.359374c8.425781-4.210938 16.1875-10.320313 26.921874-18.414063 10.738282-8.09375 22.628907-14.203125 35.179688-18.414063 12.554688-4.210937 25.765625-6.359374 39.144531-6.359374 16.1875 0 32.371094 2.148437 47.898438 6.277343 15.523437 4.128907 30.554687 10.238281 44.675781 18.332031zm0 0" fill="#5ecccc"/><path d="m372.789062 433.667969c-10.871093-18.117188-27.589843-24.917969-39.695312-27.4375-21.617188-4.488281-46.167969.636719-64.039062 13.394531l-9.597657-13.445312c21.488281-15.355469 51.011719-21.539063 76.996094-16.121094 22 4.578125 39.460937 16.71875 50.496094 35.109375zm0 0" fill="#12acab"/><path d="m239.484375 421.160156c0 5.121094 2.3125 9.664063 6.027344 12.71875l-1.898438 3.800782h-45.421875v-33.035157h57.808594c-9.082031 0-16.515625 7.433594-16.515625 16.515625zm0 0" fill="#f67fa4"/><path d="m313.808594 404.644531v33.03125h-45.421875l-1.898438-3.796875c3.714844-3.054687 6.027344-7.597656 6.027344-12.71875 0-9.082031-7.433594-16.515625-16.515625-16.515625zm0 0" fill="#f67fa4"/><path d="m272.515625 421.160156c0 5.121094-2.3125 9.664063-6.027344 12.71875-2.890625 2.394532-6.523437 3.800782-10.488281 3.800782s-7.597656-1.40625-10.488281-3.800782c-3.714844-3.054687-6.027344-7.597656-6.027344-12.71875 0-9.082031 7.429687-16.515625 16.515625-16.515625 9.082031 0 16.515625 7.433594 16.515625 16.515625zm0 0" fill="#ef4983"/><path d="m276.738281 483.066406c-6.554687 2.183594-13.507812-2.003906-14.644531-8.816406l-6.09375-36.574219c3.964844 0 7.597656-1.402343 10.488281-3.796875l1.898438 3.796875 14.851562 29.699219c3.058594 6.117188-.011719 13.527344-6.5 15.691406zm0 0" fill="#e01a63"/><path d="m256 437.675781-6.09375 36.574219c-1.136719 6.8125-8.089844 11-14.644531 8.816406-6.488281-2.164062-9.558594-9.574218-6.5-15.691406l14.851562-29.699219 1.898438-3.796875c2.890625 2.394532 6.523437 3.796875 10.488281 3.796875zm0 0" fill="#f67fa4"/></svg>