<svg id="Layer_3" enable-background="new 0 0 64 64" height="512" viewBox="0 0 64 64" width="512" xmlns="http://www.w3.org/2000/svg"><path d="m47.8 51.21-1.8 10.79h-30l-1.84-11h26.5l-1.66 5 4 2 1.17-7h3.66l.03.2z" fill="#d3a06c"/><path d="m49.92 37.25-.01.02c-.41-.18-.85-.27-1.32-.27h-.18c-.9 0-1.77.36-2.41 1-.64-.64-1.51-1-2.41-1h-.18c-1.42 0-2.63.86-3.15 2.09l-2.86-.96c-.27-.09-.54-.13-.82-.13-.71 0-1.36.29-1.82.76-.47.46-.76 1.11-.76 1.82v2.84c0 .59.2 1.15.55 1.58h-19.55l-.03-.04c7.05-6.46 19.79-13.87 36.34-14.84v.01z" fill="#d3a06c"/><path d="m47.02 46.15.81 4.85h-3.66l.81-4.85 1.02.85z" fill="#fcd770"/><path d="m42.57 44.14.28.24-2.19 6.62h-26.5l-.75-4.52-.01-.01c.49-.49 1.01-1 1.57-1.51l.03.04h19.55c.47.61 1.2 1 2.03 1 .28 0 .55-.04.82-.13z" fill="#fcd770"/><path d="m55 27.08c0 .8-.32 1.53-.83 2.06-.51.54-1.23.89-2.03.93-.28.01-.56.03-.83.05-16.55.97-29.29 8.38-36.34 14.84-.56.51-1.08 1.02-1.57 1.51-.14.16-.29.31-.43.46-.65.69-1.55 1.07-2.5 1.07h-.06c-1.89 0-3.41-1.52-3.41-3.4v-.13c0-.97.41-1.89 1.12-2.55 2.39-2.23 5.33-4.53 8.75-6.7 8.91-5.67 21.06-10.51 34.99-11.15 1.71-.08 3.14 1.3 3.14 3.01z" fill="#dfb28b"/><path d="m53 8.34c-2.33.82-4 3.05-4 5.66 0-1.7-.71-3.24-1.85-4.33.33-1.47 1.2-2.73 2.4-3.58.97-.69 2.16-1.09 3.45-1.09z" fill="#ffc729"/><path d="m49.55 6.09c-1.2.85-2.07 2.11-2.4 3.58-.6-.58-1.33-1.04-2.14-1.32-.01-.12-.01-.23-.01-.35v-4c1.82 0 3.45.81 4.55 2.09z" fill="#ffc729"/><path d="m49 18v-4c0-2.61 1.67-4.84 4-5.66.63-.22 1.3-.34 2-.34v4c0 3.31-2.69 6-6 6z" fill="#fcd770"/><path d="m49 18c-3.31 0-6-2.69-6-6v-4c.71 0 1.38.12 2.01.35.81.28 1.54.74 2.14 1.32 1.14 1.09 1.85 2.63 1.85 4.33z" fill="#fcd770"/><path d="m35 6.34c-2.33.82-4 3.05-4 5.66 0-1.7-.71-3.24-1.85-4.33.33-1.47 1.2-2.73 2.4-3.58.97-.69 2.16-1.09 3.45-1.09z" fill="#ccd1d9"/><path d="m27.01 6.35c-.01-.12-.01-.23-.01-.35v-4c1.82 0 3.45.81 4.55 2.09-1.2.85-2.07 2.11-2.4 3.58-.6-.58-1.33-1.04-2.14-1.32z" fill="#ccd1d9"/><path d="m31 16v-4c0-2.61 1.67-4.84 4-5.66.63-.22 1.3-.34 2-.34v4c0 3.31-2.69 6-6 6z" fill="#e6e9ed"/><path d="m31 16c-3.31 0-6-2.69-6-6v-4c.71 0 1.38.12 2.01.35.81.28 1.54.74 2.14 1.32 1.14 1.09 1.85 2.63 1.85 4.33z" fill="#e6e9ed"/><path d="m16 14.34c-2.33.82-4 3.05-4 5.66 0-1.7-.71-3.24-1.85-4.33.33-1.47 1.2-2.73 2.4-3.58.97-.69 2.16-1.09 3.45-1.09z" fill="#ec87c0"/><path d="m12.55 12.09c-1.2.85-2.07 2.11-2.4 3.58-.6-.58-1.33-1.04-2.14-1.32-.01-.12-.01-.23-.01-.35v-4c1.82 0 3.45.81 4.55 2.09z" fill="#ec87c0"/><path d="m12 24v-4c0-2.61 1.67-4.84 4-5.66.63-.22 1.3-.34 2-.34v4c0 3.31-2.69 6-6 6z" fill="#f29ed0"/><path d="m12 20v4c-3.31 0-6-2.69-6-6v-4c.71 0 1.38.12 2.01.35.81.28 1.54.74 2.14 1.32 1.14 1.09 1.85 2.63 1.85 4.33z" fill="#f29ed0"/><path d="m14.12 31h-4.12c-2.21 0-4-1.79-4-4h4c1.03 0 1.96.39 2.67 1.02.38 1.08.89 2.05 1.45 2.98z" fill="#b4dd7f"/><path d="m31 25h-4c-2.21 0-4-1.79-4-4h4c2.21 0 4 1.79 4 4z" fill="#b4dd7f"/><path d="m35 19h4c0 2.21-1.79 4-4 4h-4c0-2.21 1.79-4 4-4z" fill="#b4dd7f"/><g fill="#ff826e"><path d="m47.83 51-.81-4.85 2.13-1.77 3.85 11.62-4 2-1.14-6.8z"/><path d="m44.17 51-1.17 7-4-2 1.66-5 2.19-6.62 2.13 1.77z"/><path d="m58 40.58v2.84c0 .71-.29 1.36-.76 1.82-.46.47-1.11.76-1.82.76-.28 0-.55-.04-.82-.13l-5.17-1.73 1.34-1.12c.78-.65 1.23-1.6 1.23-2.61l-.26-1.32 2.86-.96c.27-.09.54-.13.82-.13 1.42 0 2.58 1.16 2.58 2.58z"/><path d="m34.55 45c-.35-.43-.55-.99-.55-1.58v-2.84c0-.71.29-1.36.76-1.82.46-.47 1.11-.76 1.82-.76.28 0 .55.04.82.13l2.86.96c-.17.4-.26.85-.26 1.32 0 1.01.45 1.96 1.23 2.61l1.34 1.12-5.17 1.73c-.27.09-.54.13-.82.13-.83 0-1.56-.39-2.03-1z"/></g><path d="m46 38c.64-.64 1.51-1 2.41-1h.18c.47 0 .91.09 1.32.27.41.17.78.42 1.09.73l.74 1.09.26 1.32c0 1.01-.45 1.96-1.23 2.61l-1.34 1.12-.28.24-2.13 1.77-1.02.85-1.02-.85-2.13-1.77-.28-.24-1.34-1.12c-.78-.65-1.23-1.6-1.23-2.61 0-.47.09-.92.26-1.32.52-1.23 1.73-2.09 3.15-2.09h.18c.9 0 1.77.36 2.41 1z" fill="#fc6e51"/><path d="m55.419 37c-.386 0-.767.062-1.132.184l-2.092.697c-.314-.446-.705-.835-1.159-1.138l1.112-5.675c.012-.001.023-.002.035-.003 2.14-.098 3.817-1.85 3.817-3.989 0-1.09-.453-2.147-1.242-2.9-.798-.762-1.848-1.152-2.939-1.103-1.212.056-2.412.144-3.598.261.789-1.53 1.46-2.917 1.688-4.335h.091v-.08c3.387-.488 6-3.401 6-6.92v-4.999h-1c-.34 0-.672.033-1 .08v-3.08h-1c-1.188 0-2.308.3-3.295.824-1.281-1.166-2.952-1.824-4.705-1.824h-1v4.08c-.328-.047-.66-.08-1-.08h-1v5c0 3.482 2.559 6.371 5.894 6.904-.244 1.173-.901 2.454-1.645 3.891-.14.271-.285.557-.429.839-4.876.656-9.511 1.791-13.82 3.268v-.902-1-1h3c2.757 0 5-2.243 5-5v-1h-5c-1.13 0-2.162.391-3 1.026v-2.026-.08c3.387-.488 6-3.401 6-6.92v-5h-1c-.34 0-.672.033-1 .08v-3.08h-1c-1.188 0-2.308.3-3.295.824-1.281-1.166-2.952-1.824-4.705-1.824h-1v4.08c-.328-.047-.66-.08-1-.08h-1v5c0 3.519 2.613 6.432 6 6.92v.08 4.026c-.838-.635-1.87-1.026-3-1.026h-5v1c0 2.757 2.243 5 5 5h3v1.629c-4.736 1.776-9.05 3.929-12.825 6.25-.328-.521-.661-1.036-.997-1.54-1.489-2.23-2.889-4.359-3.128-7.426 3.362-.51 5.95-3.411 5.95-6.913v-5h-1c-.34 0-.672.033-1 .08v-3.08h-1c-1.188 0-2.308.3-3.295.824-1.281-1.166-2.952-1.824-4.705-1.824h-1v4.08c-.328-.047-.66-.08-1-.08h-1v5c0 3.519 2.613 6.432 6 6.92v.08h.053c.029.401.074.788.135 1.161-.387-.095-.782-.161-1.188-.161h-5v1c0 2.757 2.243 5 5 5h3.57c.31.491.627.973.944 1.449.322.482.646.975.972 1.492-3.117 2.04-5.827 4.17-8.048 6.244-.914.854-1.438 2.053-1.438 3.289v.128c0 2.425 1.978 4.398 4.408 4.398h.062c.798 0 1.567-.235 2.244-.632l2.439 14.632h31.694l.986-5.918.403 2.418 5.985-2.993-3.616-10.918 3.68 1.227c.367.122.748.184 1.134.184 1.975 0 3.581-1.606 3.581-3.581v-2.838c0-1.975-1.606-3.581-3.581-3.581zm-1.419-25c0 2.415-1.721 4.435-4 4.899v-2.899c0-2.415 1.721-4.435 4-4.899zm-2-4.315c-1.249.596-2.292 1.548-3 2.728-.214-.357-.457-.693-.729-1.005.569-1.681 2.006-2.947 3.729-3.305zm-6-2.584c.751.153 1.451.487 2.057.956-.57.571-1.043 1.239-1.39 1.991-.216-.132-.438-.253-.667-.363zm-2 6.899v-2.899c2.279.465 4 2.484 4 4.899v2.899c-2.279-.464-4-2.484-4-4.899zm-9 8h2.829c-.413 1.164-1.525 2-2.829 2h-2.829c.413-1.164 1.525-2 2.829-2zm1-10c0 2.415-1.721 4.435-4 4.899v-2.899c0-2.415 1.721-4.435 4-4.899zm-2-4.315c-1.249.596-2.292 1.548-3 2.728-.214-.357-.457-.693-.729-1.005.569-1.681 2.006-2.947 3.729-3.305zm-6-2.584c.751.153 1.451.487 2.057.956-.57.571-1.043 1.239-1.39 1.991-.216-.132-.438-.253-.667-.363zm-2 6.899v-2.899c2.279.465 4 2.484 4 4.899v2.899c-2.279-.464-4-2.484-4-4.899zm1 14c-1.304 0-2.416-.836-2.829-2h2.829c1.304 0 2.416.836 2.829 2zm-10-6c0 2.415-1.721 4.435-4 4.899v-2.899c0-2.415 1.721-4.435 4-4.899zm-2-4.315c-1.249.596-2.292 1.548-3 2.728-.214-.357-.457-.693-.729-1.005.569-1.681 2.006-2.948 3.729-3.306zm-6-2.584c.751.153 1.451.487 2.057.956-.57.571-1.043 1.239-1.39 1.991-.216-.132-.438-.253-.667-.363zm-2 6.899v-2.899c2.279.465 4 2.484 4 4.899v2.899c-2.279-.464-4-2.484-4-4.899zm3 12c-1.304 0-2.416-.836-2.829-2h2.829c.677 0 1.323.237 1.851.654.176.466.372.915.586 1.346zm36.653 20h-1.306l.328-1.969.325.271.325-.271zm-31.327-4h18.784c.643.616 1.511 1 2.47 1 .386 0 .767-.062 1.133-.185l3.681-1.227-1.46 4.412h-24.92l-.529-3.176c.274-.275.549-.549.841-.824zm25.23-2.24-3.476 1.159c-.162.054-.33.081-.5.081-.871 0-1.58-.709-1.58-1.581v-2.838c0-.872.709-1.581 1.581-1.581.17 0 .338.027.5.082l1.985.661c-.032.218-.066.436-.066.662 0 1.297.569 2.515 1.556 3.355zm2.782 2.324.557.464-1.659 9.952-2.015-1.007zm2.662-.386-4.134-3.444c-.551-.459-.866-1.133-.866-1.849 0-1.326 1.079-2.405 2.405-2.405h.184c.643 0 1.247.25 1.64.638l.706.841.774-.774c.455-.455 1.059-.705 1.702-.705h.184c1.326 0 2.405 1.079 2.405 2.405 0 .716-.315 1.39-.865 1.848zm3.132-9.644c-.178-.022-.353-.054-.537-.054h-.184c-.856 0-1.676.242-2.403.722-.712-.47-1.546-.722-2.419-.722h-.184c-1.489 0-2.802.747-3.6 1.881l-2.091-.696c-.366-.123-.747-.185-1.133-.185-1.975 0-3.581 1.606-3.581 3.581v2.838c0 .199.027.391.059.581h-15.444c7.317-6.01 18.64-11.667 32.465-12.783zm-38.661 10.946h-.062c-1.329 0-2.409-1.076-2.409-2.398v-.128c0-.684.293-1.35.804-1.827 8.487-7.927 24.269-16.706 43.107-17.575.031-.002.063-.002.094-.002.512 0 .996.194 1.371.553.402.384.624.9.624 1.454 0 1.067-.838 1.941-1.909 1.99-18.197.834-32.517 9.42-39.849 17.177-.462.487-1.091.756-1.771.756zm6.376 14-1.5-9h23.924l-1.493 4.507 5.985 2.993 1.25-7.5h1.639l-1.5 9zm32.917-4.5-1.659-9.952.557-.464 3.116 9.41zm7.236-13.081c0 .872-.709 1.581-1.581 1.581-.17 0-.338-.027-.5-.081l-3.476-1.159c.988-.839 1.557-2.058 1.557-3.355 0-.227-.034-.445-.067-.662l1.986-.662c.162-.054.33-.081.5-.081.872 0 1.581.709 1.581 1.581z"/></svg>