<svg id="Capa_1" enable-background="new 0 0 512 512"  viewBox="0 0 512 512" xmlns="http://www.w3.org/2000/svg"><g><g><path d="m432.344 130.43s-15.32 141.026-138.968 265.799l14.592 90.256c1.485 9.185-5.607 17.516-14.911 17.516h-74.112c-9.304 0-16.396-8.331-14.911-17.516l14.592-90.256c-123.65-124.773-138.97-265.799-138.97-265.799z" fill="#ffb8c7"/><g><path d="m306.542 477.669c-2.465 4.889-7.512 8.331-13.486 8.331h-74.112c-5.974 0-11.021-3.442-13.486-8.331l-1.425 8.816c-1.485 9.184 5.607 17.515 14.911 17.515h74.112c9.304 0 16.396-8.331 14.911-17.516z" fill="#ffacca"/></g><path d="m256 246.726c70.817 0 185.372-90.773 175.778-121.668-6.938-22.343-92.624-117.058-176.368-117.058-83.743 0-168.25 94.715-175.188 117.058-9.594 30.895 104.961 121.668 175.778 121.668z" fill="#fce39f"/><path d="m429.995 120.88c-16.118 38.01-111.878 107.846-173.995 107.846-62.123 0-157.895-69.85-173.999-107.857-.802 1.582-1.408 2.995-1.779 4.189-9.594 30.895 104.961 121.668 175.778 121.668s185.372-90.773 175.778-121.668c-.37-1.192-.977-2.6-1.783-4.178z" fill="#f5d88b"/><g><path d="m310.799 190.715c0-30.265-24.534-41.32-54.799-41.32s-54.799 11.056-54.799 41.32 24.534 54.799 54.799 54.799 54.799-24.534 54.799-54.799z" fill="#f3746b"/></g><g><path d="m310.799 94.596c0-30.265-24.534-41.32-54.799-41.32s-54.799 11.056-54.799 41.32 24.534 54.799 54.799 54.799 54.799-24.535 54.799-54.799z" fill="#f3746b"/></g><g><path d="m213.657 142.655c0-30.265-24.534-41.32-54.799-41.32s-54.799 11.056-54.799 41.32 24.534 54.799 54.799 54.799 54.799-24.534 54.799-54.799z" fill="#f3746b"/></g><g><path d="m407.94 142.655c0-30.265-24.534-41.32-54.799-41.32s-54.799 11.056-54.799 41.32 24.534 54.799 54.799 54.799 54.799-24.534 54.799-54.799z" fill="#f3746b"/></g><g fill="#e7635f"><path d="m256 227.514c-27.126 0-49.634-19.714-54.014-45.593-.507 2.735-.785 5.655-.785 8.794 0 30.265 24.534 54.799 54.799 54.799s54.799-24.534 54.799-54.799c0-3.139-.278-6.06-.785-8.794-4.38 25.879-26.888 45.593-54.014 45.593z"/><path d="m256 131.395c-27.126 0-49.634-19.714-54.014-45.593-.507 2.735-.785 5.655-.785 8.794 0 30.265 24.534 54.799 54.799 54.799s54.799-24.534 54.799-54.799c0-3.139-.278-6.059-.785-8.794-4.38 25.879-26.888 45.593-54.014 45.593z"/><path d="m158.859 179.454c-27.126 0-49.634-19.714-54.014-45.593-.507 2.735-.785 5.655-.785 8.794 0 30.265 24.534 54.799 54.799 54.799 30.264 0 54.799-24.534 54.799-54.799 0-3.139-.278-6.059-.785-8.794-4.381 25.879-26.889 45.593-54.014 45.593z"/><path d="m353.142 179.454c-27.126 0-49.634-19.714-54.014-45.593-.507 2.735-.785 5.655-.785 8.794 0 30.265 24.535 54.799 54.799 54.799 30.265 0 54.799-24.534 54.799-54.799 0-3.139-.278-6.059-.785-8.794-4.381 25.879-26.889 45.593-54.014 45.593z"/></g></g><g><path d="m439.312 122.572c-5.273-16.979-36.263-49.895-61.951-70.654-53.099-42.911-95.619-51.918-121.937-51.918-27.75 0-57.543 9.61-88.549 28.563-3.541 2.165-4.658 6.79-2.493 10.331 2.164 3.541 6.79 4.655 10.331 2.493 28.612-17.49 55.768-26.357 80.711-26.357 80.615 0 163.548 92.722 169.535 112 .939 3.027-.854 10.061-8.707 20.723-.263.357-.54.719-.812 1.079.215-2.104.326-4.238.326-6.398 0-31.086-22.751-48.915-62.42-48.915-13.883 0-25.686 2.191-35.174 6.363.165-1.847.264-3.712.264-5.601 0-31.086-22.751-48.915-62.42-48.915s-62.42 17.829-62.42 48.915c0 1.889.099 3.754.264 5.601-9.489-4.172-21.291-6.363-35.174-6.363-39.669 0-62.42 17.829-62.42 48.915 0 2.16.111 4.294.326 6.398-.272-.36-.549-.721-.812-1.079-7.853-10.662-9.647-17.695-8.707-20.722 2.875-9.255 27.185-41.086 63.408-68.93 3.29-2.529 3.907-7.247 1.378-10.538s-7.245-3.908-10.538-1.378c-35.263 27.106-63.94 61.382-68.601 76.388-.833 2.589-1.004 5.558-.86 8.423.112 1.033 2.889 25.751 15.069 63.735 11.192 34.907 32.824 88.081 72.317 143.174 2.433 3.396 7.15 4.13 10.486 1.729 3.373-2.418 4.147-7.112 1.729-10.486-43.924-61.273-65.569-120.574-75.888-158.434 16.051 16.944 38.965 35.053 63.424 49.818 20.843 12.582 61.163 33.689 97.019 33.689s76.176-21.107 97.02-33.689c24.503-14.791 47.456-32.939 63.511-49.909-4.165 15.369-10.186 34.242-18.82 55.312-1.573 3.84.264 8.229 4.105 9.803 3.744 1.563 8.23-.225 9.803-4.104 23.687-57.808 28.352-98.917 28.539-100.638.055-2.947.012-5.831-.862-8.424zm-315.312-5.941c8.012-5.29 20.006-8.086 34.684-8.086s26.672 2.796 34.684 8.086c.568.375 1.113.764 1.643 1.164-7.53 6.232-21.421 17.074-37.62 26.64-15.854-9.604-28.55-20.268-35.336-26.397.624-.485 1.265-.958 1.945-1.407zm34.684 73.192c-26.132 0-47.391-21.26-47.391-47.391 0-4.521.626-8.548 1.877-12.121 13.407 12.014 43.792 36.378 78.868 45.75-8.57 8.5-20.358 13.762-33.354 13.762zm8.078 17.842c-1.585-.956-3.16-1.93-4.728-2.913 11.69-.622 22.539-4.468 31.663-10.674.691 12.453 5.055 23.94 12.014 33.405-12.422-5.07-25.527-11.716-38.949-19.818zm34.679-44.808c-9.977-2.104-19.714-5.742-28.824-10.132 13.414-8.536 24.603-17.255 31.41-22.87 1.362 3.685 2.048 7.861 2.048 12.576 0 7.311-1.666 14.238-4.634 20.426zm19.89-94.379c8.012-5.29 20.006-8.086 34.684-8.086s26.672 2.796 34.684 8.086c.567.374 1.112.763 1.64 1.162-7.541 6.237-21.45 17.092-37.618 26.641-15.853-9.603-28.55-20.267-35.336-26.396.624-.485 1.266-.958 1.946-1.407zm-10.83 13.68c13.407 12.014 43.793 36.377 78.868 45.749-8.57 8.501-20.358 13.762-33.354 13.762-26.132 0-47.391-21.259-47.391-47.391 0-4.52.626-8.547 1.877-12.12zm80.197 82.627c.567.374 1.112.763 1.64 1.162-7.542 6.237-21.45 17.092-37.618 26.641-15.852-9.603-28.549-20.267-35.336-26.396.625-.485 1.267-.958 1.947-1.407 8.012-5.29 20.006-8.086 34.684-8.086 14.677 0 26.671 2.796 34.683 8.086zm-34.683 73.191c-26.132 0-47.391-21.259-47.391-47.391 0-4.521.626-8.548 1.877-12.121 13.407 12.014 43.793 36.377 78.868 45.749-8.57 8.502-20.358 13.763-33.354 13.763zm42.756-26.965c-9.977-2.104-19.714-5.742-28.824-10.132 13.414-8.535 24.603-17.255 31.41-22.87 1.362 3.685 2.048 7.861 2.048 12.577 0 7.309-1.665 14.236-4.634 20.425zm0-96.307c-9.977-2.104-19.714-5.742-28.824-10.132 13.414-8.536 24.603-17.255 31.411-22.87 1.362 3.686 2.048 7.862 2.048 12.577-.001 7.31-1.666 14.237-4.635 20.425zm19.891 1.927c8.012-5.29 20.006-8.086 34.684-8.086s26.672 2.796 34.684 8.086c.567.374 1.112.763 1.64 1.162-7.541 6.237-21.45 17.092-37.618 26.641-15.852-9.603-28.549-20.267-35.336-26.396.623-.484 1.265-.958 1.946-1.407zm26.605 91.034c-13.422 8.102-26.527 14.748-38.95 19.818 6.96-9.465 11.324-20.951 12.014-33.405 9.125 6.206 19.973 10.051 31.664 10.674-1.568.983-3.143 1.956-4.728 2.913zm8.078-17.842c-26.132 0-47.391-21.26-47.391-47.391 0-4.52.626-8.548 1.877-12.12 13.407 12.014 43.793 36.377 78.868 45.749-8.57 8.5-20.358 13.762-33.354 13.762zm42.757-26.965c-9.977-2.104-19.714-5.742-28.824-10.132 13.414-8.536 24.603-17.255 31.411-22.87 1.362 3.685 2.048 7.861 2.048 12.577-.001 7.309-1.667 14.236-4.635 20.425z"/><path d="m395.658 249.61c-3.74-1.796-8.23-.223-10.028 3.518-24.43 50.822-56.986 97.012-96.76 137.315-4.629 2.363-30.004 13.687-66.077-.367-11.691-11.871-22.906-24.414-33.346-37.316-2.61-3.226-7.34-3.727-10.568-1.115-3.226 2.611-3.725 7.342-1.115 10.568 10.286 12.713 21.298 25.092 32.776 36.844l-14.013 86.674c-2.481 13.32 8.815 26.588 22.359 26.264h74.256c13.545.325 24.84-12.945 22.359-26.263l-8.782-54.322c14.108 18.023 35.233 37.854 62.095 42.331 4.001.696 7.984-2.061 8.649-6.177.682-4.094-2.084-7.965-6.177-8.648-28.027-4.671-49.68-31.104-61.37-48.966 5.758 1.134 11.379 1.602 16.705 1.602 21.888 0 38.803-7.751 39.862-8.247 3.751-1.759 5.364-6.219 3.613-9.975-1.749-3.754-6.214-5.382-9.977-3.64-.295.136-26.515 11.996-53.45 3.959 37.726-39.724 68.83-84.747 92.508-134.009 1.796-3.743.221-8.232-3.519-10.03zm-96.713 244.674c-1.472 1.728-3.532 2.681-5.802 2.681h-74.256c-4.561.121-8.37-4.352-7.521-8.836l13.172-81.481c28.61 9.192 51.02 4.73 63.045.567l13.081 80.915c.363 2.24-.248 4.426-1.719 6.154z"/></g></g></svg>