<svg id="_x33_0" enable-background="new 0 0 64 64"  viewBox="0 0 64 64"  xmlns="http://www.w3.org/2000/svg"><g><g><g><path d="m33.02 7.42c1.75.78 2.98 2.54 2.98 4.58 0 .24-.02.47-.05.7-2.46 2.06-3.95 5.13-3.95 8.45 0-4.14-2.32-7.9-5.96-9.78.27-2.13 1.88-3.85 3.96-4.27.32-.07.66-.1 1-.1.72 0 1.4.15 2.02.42z" fill="#ff826e"/></g><g><circle cx="45" cy="8" fill="#fc6e51" r="4"/></g><g><circle cx="18" cy="8" fill="#ff826e" r="4"/></g><g><path d="m38.53 11.1c-.94.42-1.81.96-2.58 1.6.03-.23.05-.46.05-.7 0-2.04-1.23-3.8-2.98-4.58-.01-.14-.02-.28-.02-.42 0-2.76 2.24-5 5-5 1.99 0 3.72 1.17 4.52 2.86.31.65.48 1.37.48 2.14 0 1.13-.38 2.18-1.01 3.02-.15-.01-.3-.02-.45-.02-.79 0-1.52.26-2.11.71l-.01-.01z" fill="#ff826e"/></g><g><path d="m30 7.1c-2.08.42-3.69 2.14-3.96 4.27-.19-.09-.38-.18-.57-.27l-.89-.4-.01.01c-.59-.45-1.32-.71-2.11-.71l-1.05.1v-.01c.37-.6.59-1.32.59-2.09 0-1.27-.59-2.41-1.52-3.14.8-1.69 2.52-2.86 4.52-2.86 2.76 0 5 2.24 5 5z" fill="#fc6e51"/></g><g><path d="m32 21.15v1.85l-2.56 3.83c-.21.32-.4.65-.56.99l-.59-.89c-.83-1.24-2.09-2.13-3.54-2.49l-.04-.01c-1.11-1.67-1.71-3.64-1.71-5.67v-.95c.23-.1.44-.25.62-.43l1.34-1.34c.67-.67 1.04-1.57 1.04-2.5 0-.98-.4-1.86-1.04-2.5-.12-.13-.25-.24-.39-.33l.01-.01.89.4c.19.09.38.18.57.27 3.64 1.88 5.96 5.64 5.96 9.78z" fill="#fc6e51"/></g><g><path d="m41.71 27.86-.71.47h-.01c.01-.05.01-.11.01-.16v-4.17l-1.71.43c1.11-1.67 1.71-3.64 1.71-5.67v-.95c-.23-.1-.44-.25-.62-.43l-1.34-1.34c-.67-.67-1.04-1.57-1.04-2.5 0-.98.4-1.86 1.04-2.5.12-.12.25-.23.39-.33.59-.45 1.32-.71 2.11-.71.15 0 .3.01.45.02 1.41.1 2.75.72 3.75 1.72l.01.01c1.12 1.12 1.75 2.64 1.75 4.22v1.07c0 2.08-.49 4.08-1.4 5.87-.01.03-.03.06-.05.09-.99 1.93-2.47 3.62-4.34 4.86z" fill="#fc6e51"/></g><g><path d="m38.53 11.1.89-.4.01.01c-.14.1-.27.21-.39.33-.64.64-1.04 1.52-1.04 2.5 0 .93.37 1.83 1.04 2.5l1.34 1.34c.18.18.39.33.62.43v.95c0 2.03-.6 4-1.71 5.67l-.04.01c-1.45.36-2.71 1.25-3.54 2.49l-.59.89c-.16-.34-.35-.67-.56-.99l-2.56-3.83v-1.85c0-3.32 1.49-6.39 3.95-8.45.77-.64 1.64-1.18 2.58-1.6z" fill="#ff826e"/></g><g><path d="m23 24v4.17c0 .05 0 .11.01.16h-.01l-.71-.47c-1.87-1.24-3.35-2.93-4.34-4.86-.02-.03-.04-.06-.05-.09-.91-1.79-1.4-3.8-1.4-5.87v-1.07c0-1.58.63-3.1 1.75-4.22l.01-.01c.86-.86 1.96-1.43 3.15-1.64l1.05-.1c.79 0 1.52.26 2.11.71.14.09.27.2.39.33.64.64 1.04 1.52 1.04 2.5 0 .93-.37 1.83-1.04 2.5l-1.34 1.34c-.18.18-.39.33-.62.43v.95c0 2.03.6 4 1.71 5.67z" fill="#ff826e"/></g><g><path d="m10 13.9v2.1h-3c-2.76 0-5-2.24-5-5v-3l4.21 1.05c2.23.56 3.79 2.56 3.79 4.85z" fill="#b4dd7f"/></g><g><path d="m11.88 17.65.93.81-.55 1.4c-.76 1.9-2.6 3.14-4.65 3.14h-2.61c0-1.44.52-2.78 1.4-3.82.88-1.03 2.11-1.76 3.53-2l1.19-.2z" fill="#b4dd7f"/></g><g><path d="m54 16-1.12.98-.76.67-.98-.39c-1.9-.76-3.14-2.6-3.14-4.65v-2.61c.15 0 .3.01.45.02 1.27.09 2.44.59 3.37 1.38 1.03.88 1.76 2.11 2 3.53z" fill="#b4dd7f"/></g><g><path d="m16 12.61c0 2.05-1.24 3.89-3.14 4.65l-.98.39-.76-.67-1.12-.98.18-1.07c.24-1.42.97-2.65 2-3.53.03-.02.05-.04 2.45-1.23.44-.11.9-.17 1.37-.17z" fill="#a0d468"/></g><g><path d="m57 16h-3v-2.1c0-2.29 1.56-4.29 3.79-4.85l4.21-1.05v3c0 2.76-2.24 5-5 5z" fill="#a0d468"/></g><g><path d="m54.07 17.18c1.42.24 2.65.97 3.53 2 .88 1.04 1.4 2.38 1.4 3.82h-2.61c-2.05 0-3.89-1.24-4.65-3.14l-.55-1.4.93-.81.76-.67z" fill="#a0d468"/></g><g><path d="m36 31.6c0 .93-.15 1.85-.44 2.72l-.44 1.32.01.01c-1.13 1.08-2.18 2.26-3.13 3.52-.95-1.25-1.99-2.43-3.12-3.52l-.44-1.33c-.29-.87-.44-1.79-.44-2.72 0-1.31.3-2.61.88-3.78.16-.34.35-.67.56-.99l2.56-3.83 2.56 3.83c.21.32.4.65.56.99.58 1.17.88 2.47.88 3.78z" fill="#a0d468"/></g><g><path d="m39.94 31.82c-1.73 1.11-3.34 2.39-4.81 3.83l-.01-.01.44-1.32c.29-.87.44-1.79.44-2.72 0-1.31-.3-2.61-.88-3.78l.59-.89c.83-1.24 2.09-2.13 3.54-2.49l.04-.01 1.71-.43v4.17c0 .05 0 .11-.01.16-.02 1.24-.39 2.45-1.05 3.49z" fill="#b4dd7f"/></g><g><path d="m28.29 26.93.59.89c-.58 1.17-.88 2.47-.88 3.78 0 .93.15 1.85.44 2.72l.44 1.33c-1.47-1.44-3.09-2.72-4.82-3.83-.66-1.04-1.03-2.25-1.05-3.49-.01-.05-.01-.11-.01-.16v-4.17l1.71.43.04.01c1.45.36 2.71 1.25 3.54 2.49z" fill="#b4dd7f"/></g><g><path d="m23 28.33h.01c.02 1.24.39 2.45 1.05 3.49-1.36-.87-2.8-1.64-4.3-2.3l-4.31-1.89c-.88-.38-1.45-1.25-1.45-2.21 0-.67.27-1.28.71-1.71.43-.44 1.04-.71 1.71-.71h1.53c.99 1.93 2.47 3.62 4.34 4.86z" fill="#e6e9ed"/></g><g><path d="m47.58 23c.67 0 1.28.27 1.71.71.44.43.71 1.04.71 1.71 0 .96-.57 1.83-1.45 2.21l-4.31 1.89c-1.5.66-2.94 1.43-4.3 2.3.66-1.04 1.03-2.25 1.05-3.49h.01l.71-.47c1.87-1.24 3.35-2.93 4.34-4.86z" fill="#e6e9ed"/></g><g><path d="m31.06 48.85.79 11.13-5.15-.74c-.97-.14-1.7-.97-1.7-1.96 0-.19.03-.37.08-.55l1.78-6.25c.98-.54 1.88-1.22 2.68-2.02l.34-.34c.33.33.73.58 1.18.72z" fill="#aab2bd"/></g><g><path d="m32 39.17c-.97 1.28-1.85 2.65-2.62 4.08-1.78-1.94-4.26-3.11-6.9-3.23v-.01c-1.96-3.48-4.8-6.4-8.23-8.46l-2.39-1.43c-1.15-.7-1.86-1.94-1.86-3.29 0-1.05.43-2.01 1.12-2.71.7-.69 1.66-1.12 2.71-1.12h2.59c-.67 0-1.28.27-1.71.71-.44.43-.71 1.04-.71 1.71 0 .96.57 1.83 1.45 2.21l4.31 1.89c1.5.66 2.94 1.43 4.3 2.3 1.73 1.11 3.35 2.39 4.82 3.83 1.13 1.09 2.17 2.27 3.12 3.52z" fill="#aab2bd"/></g><g><path d="m31.06 48.84c.29.11.61.16.94.16.83 0 1.58-.34 2.12-.88l.34.34c.81.81 1.72 1.5 2.71 2.04l2.7 8.1c.09.27.13.54.13.82 0 1.42-1.16 2.58-2.58 2.58h-4.49c-.52 0-.96-.41-1-.93l-.08-1.09-.79-11.13z" fill="#ccd1d9"/></g><g><path d="m32 43c-.82 0-1.56.33-2.1.86-.16-.21-.34-.41-.52-.61.77-1.43 1.65-2.8 2.62-4.08.95-1.26 2-2.44 3.13-3.52 1.47-1.44 3.08-2.72 4.81-3.83 1.36-.87 2.8-1.64 4.3-2.3l4.31-1.89c.88-.38 1.45-1.25 1.45-2.21 0-.67-.27-1.28-.71-1.71-.43-.44-1.04-.71-1.71-.71h2.59c1.05 0 2.01.43 2.71 1.12.69.7 1.12 1.66 1.12 2.71 0 1.35-.71 2.59-1.86 3.29l-2.39 1.43c-3.43 2.06-6.27 4.98-8.23 8.46v.01c-2.91.13-5.62 1.54-7.42 3.84-.54-.53-1.28-.86-2.1-.86z" fill="#ccd1d9"/></g><g><path d="m29.38 43.25c.18.2.36.4.52.61-.56.54-.9 1.3-.9 2.14 0 .83.34 1.58.88 2.12l-.34.34c-.8.8-1.7 1.48-2.68 2.02-.4.22-.81.42-1.24.6-1.45.6-3.02.92-4.62.92v-2.88c0-1.12.47-2.15 1.24-2.88l-.01-.01-1.06-1.06c-.75-.75-1.17-1.77-1.17-2.83v-2.34h2c.16 0 .32 0 .48.02 2.64.12 5.12 1.29 6.9 3.23z" fill="#fcd770"/></g><g><path d="m41.77 46.24c.77.74 1.23 1.77 1.23 2.88v2.88c-2.06 0-4.06-.53-5.83-1.5-.99-.54-1.9-1.23-2.71-2.04l-.34-.34c.54-.54.88-1.29.88-2.12 0-.84-.34-1.6-.9-2.14 1.8-2.3 4.51-3.71 7.42-3.84.16-.02.32-.02.48-.02h2v2.34c0 1.06-.42 2.08-1.17 2.83l-1.06 1.06z" fill="#fcd770"/></g><g><path d="m34.12 48.12c-.54.54-1.29.88-2.12.88-.33 0-.65-.05-.94-.16-.45-.14-.85-.39-1.18-.72-.54-.54-.88-1.29-.88-2.12 0-.84.34-1.6.9-2.14.54-.53 1.28-.86 2.1-.86s1.56.33 2.1.86c.56.54.9 1.3.9 2.14 0 .83-.34 1.58-.88 2.12z" fill="#ffc729"/></g></g><path d="m57.544 8.083c-1.91.478-3.394 1.842-4.096 3.583-.903-1.164-2.162-2.023-3.61-2.42.105-.405.162-.824.162-1.246 0-2.757-2.243-5-5-5-.743 0-1.472.182-2.138.498-1.091-1.51-2.861-2.498-4.862-2.498-3.003 0-5.49 2.219-5.925 5.102-.35-.064-.708-.102-1.075-.102-.03 0-.059.008-.089.008-.475-2.837-2.941-5.008-5.911-5.008-1.938 0-3.742.959-4.859 2.501-.651-.312-1.372-.501-2.141-.501-2.757 0-5 2.243-5 5 0 .538.095 1.065.261 1.568-1.069.461-2 1.183-2.71 2.098-.701-1.741-2.185-3.105-4.095-3.583l-5.456-1.364v4.281c0 3.309 2.691 6 6 6h.484c-2.107 1.195-3.484 3.448-3.484 6v1h3.615c1.196 0 2.322-.354 3.273-.972-1.14.884-1.888 2.252-1.888 3.803 0 1.688.899 3.275 2.345 4.142l2.388 1.433c2.77 1.662 5.136 3.924 6.935 6.594h-1.668v3.343c0 1.335.52 2.591 1.464 3.535l.424.424c-.556.811-.888 1.78-.888 2.821v3.877h1c1.494 0 2.944-.263 4.315-.742l-1.201 4.202c-.075.268-.114.542-.114.818 0 1.477 1.102 2.747 2.563 2.956l4.352.622.021.288c.075 1.04.951 1.856 1.995 1.856h4.488c1.975 0 3.581-1.606 3.581-3.581 0-.385-.062-.765-.184-1.133l-1.993-5.978c1.33.447 2.733.692 4.177.692h1v-3.877c0-1.041-.332-2.01-.888-2.821l.424-.424c.944-.944 1.464-2.199 1.464-3.535v-3.343h-1.668c1.799-2.67 4.165-4.932 6.935-6.594l2.387-1.433c1.447-.867 2.346-2.454 2.346-4.142 0-1.551-.748-2.919-1.888-3.803.952.618 2.078.972 3.273.972h3.615v-1c0-2.552-1.377-4.805-3.484-6h.484c3.309 0 6-2.691 6-6v-4.281zm-4.709 7.014.086.518-1.002.876-.406-.162c-1.526-.611-2.513-2.069-2.513-3.714v-1.513c1.952.401 3.496 1.958 3.835 3.995zm-3.835 10.321c0 .563-.333 1.073-.85 1.299l-4.308 1.885c-.676.296-1.333.629-1.984.97.04-.222.069-.445.09-.67l.317-.211c1.835-1.222 3.305-2.841 4.366-4.691h.95c.783 0 1.419.636 1.419 1.418zm-15 20.582c0 1.103-.897 2-2 2s-2-.897-2-2 .897-2 2-2 2 .897 2 2zm-1.99-8.407c-.707-.861-1.455-1.684-2.246-2.464l-.373-1.121c-.26-.776-.391-1.585-.391-2.404 0-1.505.441-2.963 1.276-4.216l1.724-2.585 1.724 2.585c.835 1.253 1.276 2.711 1.276 4.216 0 .819-.131 1.628-.39 2.404l-.387 1.163c-.779.769-1.517 1.576-2.213 2.422zm-18.276-19.654c.68-.348 1.278-.805 1.766-1.358v.462c0 .916.114 1.812.286 2.691zm8.73-6.939c1.398 0 2.536 1.138 2.536 2.536 0 .677-.264 1.314-.743 1.793l-1.343 1.343c-.212.211-.493.328-.793.328-.618 0-1.121-.503-1.121-1.121 0-.3.117-.581.328-.793l1.379-1.379-1.414-1.414-1.379 1.379c-.589.589-.914 1.373-.914 2.207 0 1.683 1.34 3.049 3.008 3.11.028 1.358.296 2.685.793 3.931l-.801-.201v3.667c-2.827-2.267-4.5-5.678-4.5-9.344v-1.067c0-1.329.518-2.578 1.464-3.525.935-.935 2.178-1.45 3.5-1.45zm14.575 2.152c-.011.129-.039.252-.039.384 0 1.211.472 2.351 1.329 3.207l1.343 1.343c.102.102.216.184.328.27v.402c0 1.715-.488 3.371-1.382 4.827-1.366.427-2.562 1.255-3.437 2.384l-2.181-3.272v-1.549c0-3.195 1.544-6.133 4.039-7.996zm4.497-2.152c1.322 0 2.565.515 3.507 1.457.939.94 1.457 2.189 1.457 3.518v1.067c0 3.665-1.673 7.077-4.5 9.344v-3.667l-.802.201c.497-1.246.766-2.573.793-3.931 1.669-.061 3.009-1.427 3.009-3.11 0-.834-.325-1.618-.914-2.207l-1.379-1.379-1.414 1.414 1.379 1.379c.211.212.328.493.328.793 0 .618-.503 1.121-1.121 1.121-.3 0-.581-.117-.793-.328l-1.343-1.343c-.479-.479-.743-1.116-.743-1.793 0-1.398 1.138-2.536 2.536-2.536zm-10.536 11.697-2.181 3.271c-.875-1.129-2.071-1.957-3.437-2.384-.894-1.456-1.382-3.112-1.382-4.827v-.402c.112-.086.227-.168.328-.27l1.343-1.343c.857-.856 1.329-1.995 1.329-3.206 0-.131-.028-.255-.039-.383 2.495 1.862 4.039 4.8 4.039 7.995zm-14.582 1.303h.95c1.061 1.85 2.531 3.469 4.366 4.691l.317.211c.021.22.048.438.087.655-.649-.339-1.308-.661-1.981-.955l-4.308-1.885c-.516-.225-.849-.735-.849-1.299 0-.782.636-1.418 1.418-1.418zm8.41 7.148c-.537-.901-.828-1.924-.828-2.977v-2.891l.507.127c1.209.302 2.256 1.04 2.947 2.077l.298.447c-.481 1.161-.752 2.4-.752 3.673 0 .384.031.764.076 1.143-.723-.569-1.479-1.094-2.248-1.599zm11.419-3.216.298-.447c.691-1.038 1.738-1.775 2.948-2.077l.507-.127v2.891c0 1.044-.287 2.059-.816 2.955-.778.51-1.531 1.055-2.261 1.63.046-.382.077-.766.077-1.153 0-1.273-.271-2.512-.753-3.672zm12.253-10.89v-.462c.488.553 1.086 1.01 1.766 1.358l-2.052 1.795c.172-.879.286-1.775.286-2.691zm-3.5-12.042c1.654 0 3 1.346 3 3 0 .345-.08.678-.194 1h-.806v2.662c-.171-.217-.352-.428-.55-.626-.828-.828-1.829-1.42-2.922-1.746.299-.721.472-1.489.472-2.29 0-.597-.09-1.172-.253-1.717.39-.18.811-.283 1.253-.283zm-7-2c2.206 0 4 1.794 4 4 0 .717-.195 1.401-.551 2.009-.926.018-1.784.311-2.496.807l-.827.367c-.431.192-.843.413-1.242.65-.339-1.71-1.408-3.157-2.866-4.011.095-2.121 1.837-3.822 3.982-3.822zm-3 9c0 .078-.012.152-.016.229-1.283 1.154-2.299 2.569-2.984 4.145-.987-2.27-2.663-4.208-4.829-5.508.493-1.67 2.036-2.866 3.829-2.866 2.206 0 4 1.794 4 4zm-10-9c1.971 0 3.603 1.436 3.93 3.376-1.644.607-2.952 1.917-3.557 3.584l-.326-.145c-.626-.436-1.369-.7-2.168-.774.072-.341.121-.688.121-1.041 0-1.267-.489-2.412-1.269-3.295.742-1.05 1.96-1.705 3.269-1.705zm-10 5c0-1.654 1.346-3 3-3s3 1.346 3 3c0 .425-.091.841-.262 1.224-1.196.305-2.296.92-3.195 1.819-.196.196-.374.404-.543.617v-2.66h-1c-.272 0-.538.021-.802.051-.126-.334-.198-.688-.198-1.051zm-3.835 7.097c.339-2.037 1.884-3.594 3.835-3.995v1.513c0 1.646-.987 3.103-2.514 3.714l-.406.162-1.002-.876zm-8.165-4.097v-1.719l2.97.743c1.784.446 3.03 2.041 3.03 3.88v1.096h-2c-2.206 0-4-1.794-4-4zm4.615 11h-1.513c.401-1.952 1.958-3.496 3.995-3.835l.721-.12.805.705-.295.736c-.61 1.527-2.068 2.514-3.713 2.514zm5.571-1.771.033-.083 2.12 1.854h-1.508c-.951 0-1.833.286-2.582.762.841-.642 1.523-1.499 1.937-2.533zm1.576 10.462-2.388-1.433c-.848-.508-1.374-1.438-1.374-2.427 0-1.375.986-2.522 2.288-2.776-.183.418-.288.878-.288 1.363 0 1.358.804 2.588 2.048 3.131l4.308 1.885c4.455 1.95 8.377 4.986 11.401 8.788-.568.788-1.098 1.603-1.593 2.443-1.71-1.477-3.822-2.387-6.096-2.605-2.03-3.427-4.886-6.317-8.306-8.369zm7.238 18.432c0-1.379.935-2.576 2.272-2.91l.97-.243-.485-1.94-.97.243c-.532.133-1.023.353-1.467.634l-.442-.442c-.558-.559-.878-1.332-.878-2.122v-1.343h1c2.544 0 4.907 1.056 6.608 2.906-.379.611-.608 1.324-.608 2.094 0 .734.213 1.413.559 2.005-1.814 1.701-4.1 2.732-6.559 2.951zm4.846 9.131c-.482-.069-.846-.489-.846-.976 0-.091.013-.183.038-.271l1.68-5.878c.8-.482 1.553-1.05 2.247-1.706.046.027.093.051.14.076l.665 9.314zm12.072.663c.055.163.082.332.082.502 0 .872-.709 1.581-1.581 1.581h-4.488l-.787-11.015c.691-.025 1.333-.228 1.892-.561.708.669 1.478 1.247 2.297 1.735zm3.082-7.961c-2.459-.219-4.745-1.25-6.559-2.951.346-.592.559-1.271.559-2.005 0-.77-.229-1.483-.608-2.094 1.701-1.85 4.064-2.906 6.608-2.906h1v1.343c0 .79-.32 1.563-.878 2.121l-.442.442c-.444-.281-.934-.501-1.467-.634l-.97-.243-.485 1.94.971.243c1.336.335 2.271 1.532 2.271 2.911zm9.625-21.698-2.388 1.433c-3.42 2.052-6.276 4.942-8.305 8.369-2.688.257-5.152 1.481-6.987 3.466-.578-.325-1.235-.526-1.945-.526-.26 0-.513.029-.76.077 3.178-5.118 7.867-9.22 13.404-11.642l4.307-1.884c1.245-.545 2.049-1.774 2.049-3.133 0-.485-.105-.945-.288-1.364 1.302.255 2.288 1.402 2.288 2.777 0 .989-.526 1.919-1.375 2.427zm-1.456-7.258h-1.508l2.119-1.854.033.083c.414 1.035 1.096 1.892 1.937 2.534-.748-.477-1.63-.763-2.581-.763zm6.216 0c-1.646 0-3.103-.987-3.714-2.515l-.295-.736.805-.705.721.12c2.037.339 3.594 1.884 3.995 3.835h-1.512zm4.615-11c0 2.206-1.794 4-4 4h-2v-1.096c0-1.838 1.246-3.434 3.03-3.88l2.97-.743z"/></g></svg>