<svg id="_30-flower" height="512" viewBox="0 0 512 512" width="512" xmlns="http://www.w3.org/2000/svg" xmlns:xlink="http://www.w3.org/1999/xlink" data-name="30-flower"><linearGradient id="New_Gradient_Swatch_6" gradientUnits="userSpaceOnUse" x1="158.746" x2="353.254" y1="339.763" y2="145.254"><stop offset="0" stop-color="#e3dddd"/><stop offset="1" stop-color="#fff"/></linearGradient><linearGradient id="New_Gradient_Swatch_27" gradientUnits="userSpaceOnUse" x1="181.272" x2="333.535" y1="96.271" y2="96.271"><stop offset="0" stop-color="#f9dea7"/><stop offset="1" stop-color="#fcf2dc"/></linearGradient><linearGradient id="New_Gradient_Swatch_18" gradientUnits="userSpaceOnUse" x1="224" x2="288" y1="96.541" y2="96.541"><stop offset="0" stop-color="#f5c2c2"/><stop offset="1" stop-color="#fae1e1"/></linearGradient><linearGradient id="New_Gradient_Swatch_27-2" x1="295.736" x2="448" xlink:href="#New_Gradient_Swatch_27" y1="175.729" y2="175.729"/><linearGradient id="New_Gradient_Swatch_18-2" x1="338.465" x2="402.465" xlink:href="#New_Gradient_Swatch_18" y1="176" y2="176"/><linearGradient id="New_Gradient_Swatch_27-3" x1="55.736" x2="208" xlink:href="#New_Gradient_Swatch_27" y1="144.271" y2="144.271"/><linearGradient id="New_Gradient_Swatch_18-3" x1="98.465" x2="162.465" xlink:href="#New_Gradient_Swatch_18" y1="144.541" y2="144.541"/><linearGradient id="New_Gradient_Swatch_27-4" x1="167.736" x2="320" xlink:href="#New_Gradient_Swatch_27" y1="223.729" y2="223.729"/><linearGradient id="New_Gradient_Swatch_18-4" x1="210.465" x2="274.465" xlink:href="#New_Gradient_Swatch_18" y1="224" y2="224"/><linearGradient id="New_Gradient_Swatch_25" gradientUnits="userSpaceOnUse" x1="224" x2="288" y1="480" y2="416"><stop offset="0" stop-color="#d5cccc"/><stop offset="1" stop-color="#f1eeee"/></linearGradient><linearGradient id="New_Gradient_Swatch_22" gradientUnits="userSpaceOnUse" x1="276" x2="324" y1="468" y2="420"><stop offset="0" stop-color="#9d95c8"/><stop offset="1" stop-color="#d5d2e7"/></linearGradient><linearGradient id="New_Gradient_Swatch_22-2" gradientTransform="matrix(-1 0 0 1 512 0)" x2="324" xlink:href="#New_Gradient_Swatch_22" y1="468" y2="420"/><linearGradient id="New_Gradient_Swatch_22-3" x1="294.532" x2="371.596" xlink:href="#New_Gradient_Swatch_22" y1="414.335" y2="337.271"/><linearGradient id="New_Gradient_Swatch_22-4" gradientTransform="matrix(-1 0 0 1 512 0)" x1="371.596" x2="294.532" xlink:href="#New_Gradient_Swatch_22" y1="414.335" y2="337.271"/><linearGradient id="New_Gradient_Swatch_22-5" x1="226.343" x2="285.657" xlink:href="#New_Gradient_Swatch_22" y1="405.46" y2="346.146"/><g id="filled"><path d="m256 192-160 16s16 160 160 176c144-16 160-176 160-176z" fill="url(#New_Gradient_Swatch_6)"/><path d="m315.317 82.88a32 32 0 0 0 -32.084-51.141 31.995 31.995 0 0 0 -58.984 12.87 31.992 31.992 0 0 0 -28.949 56.521 31.992 31.992 0 0 0 37.113 51.527 31.993 31.993 0 0 0 62.787-9.547 31.992 31.992 0 0 0 20.119-60.23z" fill="url(#New_Gradient_Swatch_27)"/><circle cx="256" cy="96.541" fill="url(#New_Gradient_Swatch_18)" r="32"/><path d="m429.781 162.338a31.994 31.994 0 0 0 -32.081-51.138 31.995 31.995 0 0 0 -58.984 12.87 31.993 31.993 0 0 0 -28.946 56.521 31.992 31.992 0 0 0 37.114 51.526 31.992 31.992 0 0 0 62.78-9.546 31.993 31.993 0 0 0 20.119-60.231z" fill="url(#New_Gradient_Swatch_27-2)"/><circle cx="370.465" cy="176" fill="url(#New_Gradient_Swatch_18-2)" r="32"/><path d="m189.781 130.88a31.995 31.995 0 0 0 -32.081-51.141 31.995 31.995 0 0 0 -58.984 12.87 31.993 31.993 0 0 0 -28.948 56.521 31.993 31.993 0 0 0 37.114 51.527 31.993 31.993 0 0 0 62.78-9.547 31.992 31.992 0 0 0 20.119-60.23z" fill="url(#New_Gradient_Swatch_27-3)"/><circle cx="130.465" cy="144.541" fill="url(#New_Gradient_Swatch_18-3)" r="32"/><path d="m301.781 210.338a31.994 31.994 0 0 0 -32.081-51.138 31.995 31.995 0 0 0 -58.984 12.87 31.993 31.993 0 0 0 -28.946 56.521 31.992 31.992 0 0 0 37.114 51.526 31.992 31.992 0 0 0 62.78-9.546 31.993 31.993 0 0 0 20.119-60.231z" fill="url(#New_Gradient_Swatch_27-4)"/><circle cx="242.465" cy="224" fill="url(#New_Gradient_Swatch_18-4)" r="32"/><path d="m256 384s-16 32-16 112h32c0-80-16-112-16-112z" fill="url(#New_Gradient_Swatch_25)"/><path d="m304 400 48 64h-32l-16 32-32-96z" fill="url(#New_Gradient_Swatch_22)"/><path d="m208 400-48 64h32l16 32 32-96z" fill="url(#New_Gradient_Swatch_22-2)"/><path d="m272 359.8 81.407-23.259a24 24 0 0 1 30.593 23.079v32.365a24 24 0 0 1 -30.593 23.077l-81.407-23.262z" fill="url(#New_Gradient_Swatch_22-3)"/><path d="m240 359.8-81.407-23.259a24 24 0 0 0 -30.593 23.079v32.365a24 24 0 0 0 30.593 23.077l81.407-23.262z" fill="url(#New_Gradient_Swatch_22-4)"/><rect fill="url(#New_Gradient_Swatch_22-5)" height="64" rx="8" width="64" x="224" y="343.803"/><path d="m445.632 158.687a44.045 44.045 0 0 0 -9.444-47.059 43.583 43.583 0 0 0 -33.126-13.2 43.983 43.983 0 0 0 -61.076-3.95 44.038 44.038 0 0 0 -10.813-15.248 44.018 44.018 0 0 0 -42.58-60.257 44.008 44.008 0 0 0 -72.829 11.758 44.055 44.055 0 0 0 -45.877 36.534 44.233 44.233 0 0 0 -6.811-.277 44.016 44.016 0 0 0 -72.852 11.744 44 44 0 0 0 -36.675 71.625 43.964 43.964 0 0 0 31.438 65.724c2.879 18.347 13.605 69.482 47.971 113a35.926 35.926 0 0 0 -16.958 30.539v32.37a36.045 36.045 0 0 0 35.9 36.018 36.331 36.331 0 0 0 9.99-1.41l14.21-4.06-25.7 34.262a12 12 0 0 0 9.6 19.2h24.584l12.683 25.367a12 12 0 0 0 10.733 6.633c.283 0 .567-.01.854-.03a12 12 0 0 0 10.533-8.175l9.1-27.3q-.464 11-.483 23.5a12 12 0 0 0 12 12h32a12 12 0 0 0 12-12q0-12.51-.483-23.5l9.1 27.3a12 12 0 0 0 10.533 8.175c.287.02.571.03.854.03a12 12 0 0 0 10.73-6.633l12.678-25.367h24.584a12 12 0 0 0 9.6-19.2l-25.7-34.262 14.21 4.06a36.331 36.331 0 0 0 9.99 1.41 36.045 36.045 0 0 0 35.9-36.018v-32.37a35.918 35.918 0 0 0 -16.961-30.543c25.789-32.679 38.312-69.783 44.222-94.472a44 44 0 0 0 22.371-75.918zm-250.16-93.138a20.005 20.005 0 0 1 24.65-9.672 12 12 0 0 0 16.039-9.806 19.991 19.991 0 0 1 36.863-8.019 12 12 0 0 0 12.848 5.394 20 20 0 0 1 20.07 31.947 12 12 0 0 0 4.217 18.32 19.985 19.985 0 0 1 11.327 16.872 43.962 43.962 0 0 0 -37.175 36.45 43.747 43.747 0 0 0 -9.248-.6 43.747 43.747 0 0 0 -8.391-7.206 44.034 44.034 0 1 0 -34.811-5.924 43.942 43.942 0 0 0 -16.053 7.71 43.813 43.813 0 0 0 -10.165-13.785 43.906 43.906 0 0 0 1.476-28.118 11.975 11.975 0 0 0 -1.043-3.222 43.407 43.407 0 0 0 -9.9-15.727c-.85-.868-1.741-1.69-2.653-2.48a19.813 19.813 0 0 1 1.949-12.134zm155.705 259.17c-.357.09-.714.182-1.064.283l-53.737 15.354a19.979 19.979 0 0 0 -16.376-8.556h-48a19.979 19.979 0 0 0 -16.376 8.553l-53.7-15.344c-.362-.1-.728-.2-1.094-.292-29.934-32.1-43.371-72.949-49.059-97.18a43.94 43.94 0 0 0 51.98-.114c.571.814 1.168 1.612 1.8 2.389a44 44 0 0 0 47.031 65.3 44 44 0 0 0 79.559-12.1 43.969 43.969 0 0 0 38.951-34.949 43.686 43.686 0 0 0 9.494-.943 43.965 43.965 0 0 0 43.714 19.833c1.22-.185 2.419-.425 3.6-.707-7.981 19.273-19.68 40.212-36.723 58.473zm-115.177 71.081v-40h40v40h-1.514c-.06 0-.119 0-.178 0h-36.616c-.058 0-.115 0-.172 0zm-29.415-212.466a12 12 0 0 0 16.04-9.806 20 20 0 0 1 36.867-8.02 12 12 0 0 0 12.841 5.4 19.891 19.891 0 0 1 16.375 3.479 43.506 43.506 0 0 0 7.1 9.994 19.959 19.959 0 0 1 -3.408 18.475 12 12 0 0 0 4.219 18.321 19.992 19.992 0 0 1 -12.571 37.636 12 12 0 0 0 -14.384 12.106 19.992 19.992 0 0 1 -39.229 5.965 12 12 0 0 0 -17.333-7.283 19.992 19.992 0 0 1 -23.19-32.2 12 12 0 0 0 -1.417-18.747 19.923 19.923 0 0 1 -8.607-14.282c.027-.086.046-.175.071-.261a43.35 43.35 0 0 0 1.678-10.448c.1-.219.189-.442.3-.658a20 20 0 0 1 24.648-9.671zm29.415-86.793a20 20 0 1 1 20 20 20.023 20.023 0 0 1 -20-20zm-160.713 87.746a20.005 20.005 0 0 1 2.63-26.348 12 12 0 0 0 -1.417-18.745 19.991 19.991 0 0 1 18.083-35.316 12 12 0 0 0 16.039-9.807 20 20 0 0 1 36.873-8.019 12 12 0 0 0 12.855 5.392 19.98 19.98 0 0 1 18.7 5.519 19.642 19.642 0 0 1 4.717 7.775c.02.064.041.127.063.19a19.921 19.921 0 0 1 -3.419 18.461 12 12 0 0 0 4.221 18.327 19.934 19.934 0 0 1 11.167 15.189c.067.461.112.922.146 1.381a43.987 43.987 0 0 0 -37.327 28.2c-.008.019-.015.039-.023.058-.026.068-.049.136-.075.2-.12.3-.235.612-.331.927a43.757 43.757 0 0 0 -2.4 12.785 19.981 19.981 0 0 1 -35.963.518l-.06-.111a19.9 19.9 0 0 1 -1.321-3.449 12 12 0 0 0 -17.331-7.28 20 20 0 0 1 -25.827-5.847zm80.006 219.235a12 12 0 0 1 -15.293-11.532v-32.37a11.827 11.827 0 0 1 4.019-8.959 11.964 11.964 0 0 1 9.344-2.973 11.729 11.729 0 0 1 1.93.39l56.707 16.203v23.038zm50.484 61.2-3.044-6.089a12 12 0 0 0 -10.733-6.633h-8l30-40h2.186a20.125 20.125 0 0 0 5.525 4.921zm46.35 19.278a426.854 426.854 0 0 1 3.873-50.652 426.854 426.854 0 0 1 3.873 50.652zm67.873-32a12 12 0 0 0 -10.733 6.633l-3.044 6.089-15.934-47.8a20.125 20.125 0 0 0 5.525-4.922h2.186l30 40zm52-60.01a12 12 0 0 1 -15.293 11.532l-56.707-16.203v-23.038l56.743-16.213a11.674 11.674 0 0 1 1.906-.382 12.019 12.019 0 0 1 13.351 11.934zm62.956-194.437a19.992 19.992 0 0 1 -22.909 13.257 12 12 0 0 0 -14.382 12.106 19.993 19.993 0 0 1 -39.23 5.965 12 12 0 0 0 -17.323-7.284 19.888 19.888 0 0 1 -11.88 2.327 44.055 44.055 0 0 0 -11.6-17.236 44.15 44.15 0 0 0 -.136-32.821c-.1-.3-.211-.59-.336-.88-.037-.088-.087-.168-.126-.255a43.812 43.812 0 0 0 -8.344-12.554 19.746 19.746 0 0 1 .154-12.627 20.959 20.959 0 0 1 1.094-2.551 20.06 20.06 0 0 1 20.308-10.723 19.172 19.172 0 0 1 4.306 1.045 12 12 0 0 0 16.069-9.795 20 20 0 0 1 36.873-8.019 12 12 0 0 0 12.848 5.394 19.994 19.994 0 0 1 20.057 31.95 12 12 0 0 0 4.223 18.319 19.994 19.994 0 0 1 10.334 24.382z"/><path d="m370.465 132a44 44 0 1 0 44 44 44.049 44.049 0 0 0 -44-44zm0 64a20 20 0 1 1 20-20 20.023 20.023 0 0 1 -20 20z"/><path d="m130.465 188.541a44 44 0 1 0 -44-44 44.049 44.049 0 0 0 44 44zm0-64a20 20 0 1 1 -20 20 20.023 20.023 0 0 1 20-20z"/><path d="m242.465 268a44 44 0 1 0 -44-44 44.049 44.049 0 0 0 44 44zm0-64a20 20 0 1 1 -20 20 20.023 20.023 0 0 1 20-20z"/></g></svg>