<svg id="color_line" height="512" viewBox="0 0 74 74" width="512" xmlns="http://www.w3.org/2000/svg" data-name="color line"><path d="m38.717 22.286a9.471 9.471 0 0 1 -1.019-.055c-2.815-.289-6.213-.914-7.986-1.261a7.544 7.544 0 0 0 -4.744.489 3.389 3.389 0 0 0 -.565.3.5.5 0 1 1 -.56-.828 4.3 4.3 0 0 1 .709-.378 8.535 8.535 0 0 1 5.351-.561c1.758.344 5.121.964 7.9 1.248a8.286 8.286 0 0 0 8.358-4.528.5.5 0 0 1 .9.437 9.261 9.261 0 0 1 -8.344 5.137z" fill="#323c6b"/><path d="m23.42 32.611c-1.133-1.436-4.406-6.432.7-11.27a6.434 6.434 0 0 1 4.431-6.856c-.23-1.923-1.149-5.02 0-7.381 1.422-2.989 5.3-4.1 5.3-4.1a5.488 5.488 0 0 0 .074 4.243 3.922 3.922 0 0 0 1.628 1.344 9.334 9.334 0 0 0 3.173.971c7.037.838 7.719 6.932 7.719 6.932a2.7 2.7 0 0 0 .167.439 7.425 7.425 0 0 0 3.348 3.867c2.623 1.489 4.521 6.379-.143 11.5z" fill="#fac2c3"/><g opacity=".4"><path d="m49.82 32.29-1.26.02c2.74-4.38 1-8.3-1.3-9.6a7.485 7.485 0 0 1 -3.34-3.86 2.776 2.776 0 0 1 -.17-.44s-.68-6.1-7.72-6.94a9.335 9.335 0 0 1 -3.17-.97 3.947 3.947 0 0 1 -1.63-1.34c-.75-1.36-.5-3.58-.3-4.72a11.042 11.042 0 0 1 2.92-1.44 5.468 5.468 0 0 0 .08 4.24 3.911 3.911 0 0 0 1.63 1.35 9.2 9.2 0 0 0 3.17.97c7.04.84 7.72 6.93 7.72 6.93a2.775 2.775 0 0 0 .16.44 8.715 8.715 0 0 0 1.06 1.9 6.575 6.575 0 0 0 2.29 1.97c2.62 1.49 4.52 6.38-.14 11.49z" fill="#f69d9f"/></g><path d="m38.712 22.287a9.572 9.572 0 0 1 -1.012-.054c-2.6-.265-5.775-.832-7.984-1.26a7.567 7.567 0 0 0 -4.748.482 4.09 4.09 0 0 0 -.566.3.5.5 0 0 1 -.554-.832 4.968 4.968 0 0 1 .7-.374 8.551 8.551 0 0 1 5.361-.558c2.19.425 5.337.986 7.9 1.247a8.292 8.292 0 0 0 8.362-4.529.5.5 0 1 1 .9.439 9.274 9.274 0 0 1 -8.359 5.139z" fill="#323c6b"/><path d="m28.646 14.984h-.1a.5.5 0 0 1 .013-1c.04 0 3.956.036 6.417-1.224a14.554 14.554 0 0 0 3.934-3.224.5.5 0 0 1 .772.636 15.316 15.316 0 0 1 -4.25 3.478 17.113 17.113 0 0 1 -6.786 1.334z" fill="#323c6b"/><path d="m27.77 32.729a.5.5 0 0 1 -.014-1c.124 0 12.441-.413 16.255-5.729 2.92-4.071 8.156-2.621 8.211-2.605a.5.5 0 0 1 -.277.96c-.187-.052-4.616-1.266-7.122 2.228-4.1 5.718-16.513 6.13-17.04 6.146z" fill="#323c6b"/><path d="m23.421 33.111a.5.5 0 0 1 -.393-.19c-1.177-1.491-4.583-6.709.579-11.778a6.848 6.848 0 0 1 4.4-6.978c-.041-.277-.092-.573-.145-.883-.333-1.946-.747-4.367.243-6.4 1.5-3.152 5.442-4.316 5.609-4.363a.5.5 0 0 1 .6.67 5.021 5.021 0 0 0 .052 3.811 3.455 3.455 0 0 0 1.419 1.141 8.781 8.781 0 0 0 3 .918 8.87 8.87 0 0 1 8.155 7.366c.006 0 .045.12.125.294a.566.566 0 0 1 .029.074 6.989 6.989 0 0 0 3.085 3.556 6.142 6.142 0 0 1 2.888 4.423c.41 2.578-.614 5.369-2.884 7.86a.5.5 0 0 1 -.364.163l-26.4.317zm9.673-29.294a7.988 7.988 0 0 0 -4.086 3.5c-.851 1.747-.467 3.993-.158 5.8.081.474.156.916.2 1.31a.5.5 0 0 1 -.32.527 5.941 5.941 0 0 0 -4.111 6.338.5.5 0 0 1 -.143.4c-4.507 4.268-2.2 8.576-.815 10.416l25.93-.308c2.507-2.83 2.742-5.291 2.492-6.868a5.2 5.2 0 0 0 -2.37-3.7 7.885 7.885 0 0 1 -3.567-4.121l-.008-.023a2.962 2.962 0 0 1 -.176-.476c-.038-.3-.749-5.777-7.292-6.557a9.754 9.754 0 0 1 -3.344-1.023 4.327 4.327 0 0 1 -1.834-1.542 5.375 5.375 0 0 1 -.398-3.673z" fill="#323c6b"/><path d="m51.289 18.607a.5.5 0 0 1 -.222-.052 4.471 4.471 0 0 1 -1.8-1.864l-.35-.749a.508.508 0 0 1 -.04-.127 10.585 10.585 0 0 0 -2.577-5.168.5.5 0 1 1 .742-.669 11.637 11.637 0 0 1 2.812 5.6l.3.657a3.493 3.493 0 0 0 1.357 1.421.5.5 0 0 1 -.222.948z" fill="#323c6b"/><path d="m54.743 22.344a.5.5 0 0 1 -.45-.283 8.763 8.763 0 0 0 -.433-.8.5.5 0 1 1 .852-.524 9.368 9.368 0 0 1 .481.889.5.5 0 0 1 -.233.667.492.492 0 0 1 -.217.051z" fill="#323c6b"/><path d="m41.14 67.848 8.365-30.328h-25.005l8.365 30.328a4.293 4.293 0 0 0 4.135 3.152 4.293 4.293 0 0 0 4.14-3.152z" fill="#fcd462"/><path d="m49.5 37.52-8.36 30.33a4.293 4.293 0 0 1 -8.1.51 4.343 4.343 0 0 0 1.72.36 4.284 4.284 0 0 0 4.14-3.15l7.74-28.05z" fill="#f7be56"/><rect fill="#f7be56" height="5.291" rx="2.646" width="31.044" x="21.479" y="32.228"/><path d="m49.877 38.02h-25.752a3.146 3.146 0 1 1 0-6.291h25.752a3.146 3.146 0 0 1 0 6.291zm-25.752-5.291a2.146 2.146 0 1 0 0 4.291h25.752a2.146 2.146 0 0 0 0-4.291z" fill="#323c6b"/><path d="m42.437 35.524h-8.77a.65.65 0 1 1 0-1.3h8.77a.65.65 0 1 1 0 1.3z" fill="#fff"/><path d="m30.875 35.524h-.708a.65.65 0 0 1 0-1.3h.708a.65.65 0 1 1 0 1.3z" fill="#fff"/><g fill="#323c6b"><path d="m26.18 44.13a.5.5 0 0 1 -.217-.951l12.71-6.11a.5.5 0 0 1 .433.9l-12.706 6.112a.5.5 0 0 1 -.22.049z"/><path d="m27.77 49.88a.5.5 0 0 1 -.217-.951l21.28-10.24a.5.5 0 0 1 .434.9l-21.281 10.242a.5.5 0 0 1 -.216.049z"/><path d="m29.35 55.63a.5.5 0 0 1 -.217-.951l17.631-8.479a.5.5 0 0 1 .433.9l-17.631 8.48a.5.5 0 0 1 -.216.05z"/><path d="m30.94 61.38a.5.5 0 0 1 -.216-.951l13.969-6.72a.5.5 0 0 1 .434.9l-13.97 6.72a.5.5 0 0 1 -.217.051z"/><path d="m32.52 67.13a.5.5 0 0 1 -.217-.951l10.32-4.96a.5.5 0 0 1 .434.9l-10.321 4.96a.5.5 0 0 1 -.216.051z"/><path d="m47.56 45.08h-.01a.506.506 0 0 1 -.217-.049l-14.67-7.06a.5.5 0 0 1 .434-.9l14.651 7.052a.5.5 0 0 1 -.188.959z"/><path d="m45.97 50.83a.5.5 0 0 1 -.217-.049l-20.68-9.94a.5.5 0 0 1 .434-.9l20.68 9.94a.5.5 0 0 1 -.217.951z"/><path d="m44.39 56.57a.5.5 0 0 1 -.217-.049l-17.029-8.18a.5.5 0 1 1 .433-.9l17.029 8.18a.5.5 0 0 1 -.216.951z"/><path d="m42.8 62.32a.508.508 0 0 1 -.217-.049l-13.37-6.42a.5.5 0 0 1 .433-.9l13.371 6.42a.5.5 0 0 1 -.217.951z"/><path d="m41.22 68.07a.5.5 0 0 1 -.22-.049l-9.72-4.67a.5.5 0 0 1 .434-.9l9.72 4.67a.5.5 0 0 1 -.217.951z"/><path d="m37 71.5a4.808 4.808 0 0 1 -4.622-3.52l-8.363-30.328a.5.5 0 0 1 .482-.632h25.008a.5.5 0 0 1 .482.632l-8.364 30.328a4.808 4.808 0 0 1 -4.623 3.52zm-11.847-33.48 8.191 29.7a3.794 3.794 0 0 0 7.314 0l8.191-29.7z"/><path d="m28.045 62.167a.5.5 0 0 1 -.482-.368l-2.663-9.666a.5.5 0 0 1 .965-.266l2.666 9.667a.5.5 0 0 1 -.349.614.47.47 0 0 1 -.137.019z"/><path d="m24.628 49.776a.5.5 0 0 1 -.482-.366l-.214-.775a.5.5 0 1 1 .964-.266l.214.774a.5.5 0 0 1 -.349.615.468.468 0 0 1 -.133.018z"/></g></svg>