<svg height="512" viewBox="0 0 64 64" width="512" xmlns="http://www.w3.org/2000/svg"><g id="Blue"><path d="m20 26h5.945a1.7 1.7 0 0 1 .1-.5c.36-.852 1.955-1.514 1.955-2.5s-1.595-1.648-1.951-2.5c-.369-.889.278-2.482-.392-3.152s-2.263-.023-3.152-.392c-.857-.356-1.519-1.956-2.505-1.956s-1.648 1.595-2.5 1.951c-.889.369-2.482-.278-3.152.392s-.023 2.263-.392 3.152c-.356.857-1.956 1.519-1.956 2.505s1.6 1.648 1.951 2.5c.369.889-.278 2.482.392 3.152s2.263.023 3.152.392c.857.361 1.519 1.956 2.505 1.956z" fill="#7cb8eb"/><path d="m44 26h-5.945a1.7 1.7 0 0 0 -.1-.5c-.355-.852-1.955-1.514-1.955-2.5s1.595-1.648 1.951-2.5c.369-.889-.278-2.482.392-3.152s2.263-.023 3.152-.392c.857-.356 1.519-1.956 2.505-1.956s1.648 1.595 2.505 1.951c.889.369 2.482-.278 3.152.392s.023 2.263.392 3.152c.356.857 1.951 1.519 1.951 2.505s-1.595 1.648-1.951 2.5c-.369.889.278 2.482-.392 3.152s-2.263.023-3.152.392c-.857.361-1.519 1.956-2.505 1.956z" fill="#7cb8eb"/><path d="m40 11c0 .986-1.595 1.648-1.951 2.505-.369.889.278 2.482-.392 3.152s-2.263.023-3.152.392c-.857.356-1.519 1.951-2.505 1.951s-1.648-1.595-2.5-1.951c-.889-.369-2.482.278-3.152-.392s-.023-2.263-.392-3.152c-.356-.857-1.956-1.519-1.956-2.505s1.6-1.648 1.951-2.505c.369-.889-.278-2.482.392-3.152s2.263-.023 3.152-.392c.857-.351 1.519-1.951 2.505-1.951s1.648 1.6 2.505 1.951c.889.369 2.482-.278 3.152.392s.023 2.263.392 3.152c.356.857 1.951 1.519 1.951 2.505z" fill="#7cb8eb"/><path d="m26.049 36.495a1.7 1.7 0 0 1 -.1-.495h-5.949v-5c-.986 0-1.648 1.595-2.5 1.951-.889.369-2.482-.278-3.152.392s-.023 2.263-.392 3.152c-.356.857-1.956 1.519-1.956 2.505s1.6 1.648 1.951 2.505c.369.889-.278 2.482.392 3.152s2.263.023 3.152.392c.857.356 1.519 1.951 2.505 1.951s1.648-1.595 2.5-1.951c.889-.369 2.482.278 3.152-.392s.023-2.263.392-3.152c.361-.857 1.956-1.519 1.956-2.505s-1.595-1.648-1.951-2.505z" fill="#7cb8eb"/><path d="m37.951 36.495a1.7 1.7 0 0 0 .1-.495h5.949v-5c.986 0 1.648 1.595 2.505 1.951.889.369 2.482-.278 3.152.392s.023 2.263.392 3.152c.356.857 1.951 1.519 1.951 2.505s-1.595 1.648-1.951 2.505c-.369.889.278 2.482-.392 3.152s-2.263.023-3.152.392c-.857.356-1.519 1.951-2.505 1.951s-1.648-1.595-2.505-1.951c-.889-.369-2.482.278-3.152-.392s-.023-2.263-.392-3.152c-.351-.857-1.951-1.519-1.951-2.505s1.6-1.648 1.951-2.505z" fill="#7cb8eb"/><circle cx="20" cy="23" fill="#fff" r="3"/><circle cx="20" cy="39" fill="#fff" r="3"/><circle cx="32" cy="11" fill="#fff" r="3"/><path d="m16 7h2a4 4 0 0 1 4 4v2a0 0 0 0 1 0 0h-2a4 4 0 0 1 -4-4v-2a0 0 0 0 1 0 0z" fill="#cdeef6"/><path d="m6 25h2a4 4 0 0 1 4 4v2a0 0 0 0 1 0 0h-2a4 4 0 0 1 -4-4v-2a0 0 0 0 1 0 0z" fill="#cdeef6"/><path d="m10 31h2a0 0 0 0 1 0 0v2a4 4 0 0 1 -4 4h-2a0 0 0 0 1 0 0v-2a4 4 0 0 1 4-4z" fill="#cdeef6"/><circle cx="44" cy="23" fill="#fff" r="3"/><circle cx="44" cy="39" fill="#fff" r="3"/><path d="m46 7h2a0 0 0 0 1 0 0v2a4 4 0 0 1 -4 4h-2a0 0 0 0 1 0 0v-2a4 4 0 0 1 4-4z" fill="#cdeef6" transform="matrix(-1 0 0 -1 90 20)"/><path d="m56 25h2a0 0 0 0 1 0 0v2a4 4 0 0 1 -4 4h-2a0 0 0 0 1 0 0v-2a4 4 0 0 1 4-4z" fill="#cdeef6" transform="matrix(-1 0 0 -1 110 56)"/><path d="m52 31h2a4 4 0 0 1 4 4v2a0 0 0 0 1 0 0h-2a4 4 0 0 1 -4-4v-2a0 0 0 0 1 0 0z" fill="#cdeef6" transform="matrix(-1 0 0 -1 110 68)"/><path d="m20 26h24v10h-24z" fill="#cdeef6"/><path d="m39 61c-5 0-7-5-7-5v-20h2z" fill="#cdeef6"/><path d="m25 61c5 0 7-5 7-5v-20h-2z" fill="#cdeef6"/><g fill="#4f83d1"><path d="m23 30h18v2h-18z"/><path d="m32 15a4 4 0 1 0 -4-4 4 4 0 0 0 4 4zm0-6a2 2 0 1 1 -2 2 2 2 0 0 1 2-2z"/><path d="m23 11a5.006 5.006 0 0 0 -5-5h-3v3a5.006 5.006 0 0 0 5 5h3zm-2 1h-1a3 3 0 0 1 -3-3v-1h1a3 3 0 0 1 3 3z"/><path d="m5 35v3h3a5.006 5.006 0 0 0 5-5v-4a5.006 5.006 0 0 0 -5-5h-3v3a4.982 4.982 0 0 0 2.031 4 4.982 4.982 0 0 0 -2.031 4zm2-8v-1h1a3 3 0 0 1 3 3v1h-1a3 3 0 0 1 -3-3zm0 8a3 3 0 0 1 3-3h1v1a3 3 0 0 1 -3 3h-1z"/><path d="m44 14a5.006 5.006 0 0 0 5-5v-3h-3a5.006 5.006 0 0 0 -5 5v3zm-1-3a3 3 0 0 1 3-3h1v1a3 3 0 0 1 -3 3h-1z"/><path d="m59 27v-3h-3a5.006 5.006 0 0 0 -5 5v4a5.006 5.006 0 0 0 5 5h3v-3a4.982 4.982 0 0 0 -2.031-4 4.982 4.982 0 0 0 2.031-4zm-2 8v1h-1a3 3 0 0 1 -3-3v-1h1a3 3 0 0 1 3 3zm0-8a3 3 0 0 1 -3 3h-1v-1a3 3 0 0 1 3-3h1z"/><path d="m12.381 20.773a3.091 3.091 0 0 0 -1.381 2.227 3.091 3.091 0 0 0 1.381 2.227 3.357 3.357 0 0 1 .646.661 3.291 3.291 0 0 1 .023.983 3.048 3.048 0 0 0 .586 2.493 3.061 3.061 0 0 0 2.493.587 3.3 3.3 0 0 1 .982.021 3.369 3.369 0 0 1 .662.647c.108.124.224.253.344.381-.12.128-.236.257-.344.381a3.357 3.357 0 0 1 -.661.646 3.3 3.3 0 0 1 -.983.022 3.054 3.054 0 0 0 -2.493.587 3.048 3.048 0 0 0 -.586 2.493 3.291 3.291 0 0 1 -.023.983 3.357 3.357 0 0 1 -.646.661 3.091 3.091 0 0 0 -1.381 2.227 3.091 3.091 0 0 0 1.381 2.227 3.357 3.357 0 0 1 .646.661 3.291 3.291 0 0 1 .023.983 3.048 3.048 0 0 0 .586 2.493 3.058 3.058 0 0 0 2.493.587 3.3 3.3 0 0 1 .982.021 3.369 3.369 0 0 1 .662.647 3.093 3.093 0 0 0 2.227 1.381 3.093 3.093 0 0 0 2.227-1.381 3.357 3.357 0 0 1 .661-.646 3.262 3.262 0 0 1 .983-.022 3.059 3.059 0 0 0 2.493-.587 3.048 3.048 0 0 0 .586-2.493 3.291 3.291 0 0 1 .023-.983 3.357 3.357 0 0 1 .646-.661c.125-.109.256-.226.385-.348l-3.984 19.921a1 1 0 0 0 .98 1.2 8.386 8.386 0 0 0 7-3.955 8.386 8.386 0 0 0 7 3.955 1 1 0 0 0 .98-1.2l-3.985-19.921c.13.122.261.238.386.348a3.33 3.33 0 0 1 .646.661 3.291 3.291 0 0 1 .023.983 3.048 3.048 0 0 0 .586 2.493 3.059 3.059 0 0 0 2.493.587 3.3 3.3 0 0 1 .982.021 3.369 3.369 0 0 1 .662.647 3.093 3.093 0 0 0 2.227 1.381 3.093 3.093 0 0 0 2.227-1.381 3.357 3.357 0 0 1 .661-.646 3.263 3.263 0 0 1 .983-.022 3.06 3.06 0 0 0 2.493-.587 3.048 3.048 0 0 0 .586-2.493 3.291 3.291 0 0 1 .023-.983 3.357 3.357 0 0 1 .646-.661 3.091 3.091 0 0 0 1.381-2.227 3.091 3.091 0 0 0 -1.381-2.227 3.357 3.357 0 0 1 -.646-.661 3.291 3.291 0 0 1 -.023-.983 3.048 3.048 0 0 0 -.586-2.493 3.054 3.054 0 0 0 -2.492-.587 3.373 3.373 0 0 1 -.984-.022 3.338 3.338 0 0 1 -.661-.647c-.108-.123-.223-.252-.344-.38.121-.128.236-.257.344-.381a3.357 3.357 0 0 1 .661-.646 3.2 3.2 0 0 1 .983-.022 3.064 3.064 0 0 0 2.493-.587 3.048 3.048 0 0 0 .586-2.493 3.291 3.291 0 0 1 .023-.983 3.357 3.357 0 0 1 .646-.661 3.091 3.091 0 0 0 1.381-2.227 3.091 3.091 0 0 0 -1.381-2.227 3.357 3.357 0 0 1 -.646-.661 3.291 3.291 0 0 1 -.023-.983 3.048 3.048 0 0 0 -.586-2.493 3.046 3.046 0 0 0 -2.492-.587 3.338 3.338 0 0 1 -.984-.022 3.338 3.338 0 0 1 -.661-.647 3.092 3.092 0 0 0 -2.227-1.38 3.092 3.092 0 0 0 -2.227 1.38 3.338 3.338 0 0 1 -.661.647 3.341 3.341 0 0 1 -.984.022 6.555 6.555 0 0 0 -1.18 0 6.657 6.657 0 0 0 0-1.181 3.291 3.291 0 0 1 .023-.983 3.357 3.357 0 0 1 .646-.661 3.091 3.091 0 0 0 1.383-2.224 3.091 3.091 0 0 0 -1.381-2.227 3.357 3.357 0 0 1 -.646-.661 3.291 3.291 0 0 1 -.023-.983 3.048 3.048 0 0 0 -.586-2.493 3.057 3.057 0 0 0 -2.493-.587 3.3 3.3 0 0 1 -.982-.021 3.369 3.369 0 0 1 -.662-.647 3.093 3.093 0 0 0 -2.227-1.381 3.092 3.092 0 0 0 -2.227 1.38 3.338 3.338 0 0 1 -.661.647 3.341 3.341 0 0 1 -.984.022 3.052 3.052 0 0 0 -2.492.587 3.048 3.048 0 0 0 -.586 2.493 3.291 3.291 0 0 1 -.023.983 3.357 3.357 0 0 1 -.646.661 3.091 3.091 0 0 0 -1.381 2.227 3.091 3.091 0 0 0 1.381 2.227 3.357 3.357 0 0 1 .646.661 3.291 3.291 0 0 1 .023.983 6.657 6.657 0 0 0 0 1.181 6.566 6.566 0 0 0 -1.181 0 3.294 3.294 0 0 1 -.982-.021 3.369 3.369 0 0 1 -.662-.647 3.093 3.093 0 0 0 -2.225-1.384 3.093 3.093 0 0 0 -2.227 1.381 3.357 3.357 0 0 1 -.661.646 3.266 3.266 0 0 1 -.983.022 3.051 3.051 0 0 0 -2.493.587 3.048 3.048 0 0 0 -.586 2.493 3.291 3.291 0 0 1 -.023.983 3.357 3.357 0 0 1 -.646.661zm13.919 18.949a4.035 4.035 0 0 0 -1.178 1.4 4.2 4.2 0 0 0 -.171 1.871 6 6 0 0 1 .02.937 3.205 3.205 0 0 1 -.98.023 4.2 4.2 0 0 0 -1.873.171 4.059 4.059 0 0 0 -1.4 1.178 3.8 3.8 0 0 1 -.707.7c-.16-.039-.535-.468-.737-.7a4.053 4.053 0 0 0 -1.4-1.178 3.087 3.087 0 0 0 -1.188-.2c-.233 0-.464.014-.684.027a6.012 6.012 0 0 1 -.938.02 3.239 3.239 0 0 1 -.022-.98 4.2 4.2 0 0 0 -.171-1.871 4.035 4.035 0 0 0 -1.178-1.4 3.8 3.8 0 0 1 -.7-.707c.039-.16.468-.535.7-.737a4.035 4.035 0 0 0 1.178-1.4 4.2 4.2 0 0 0 .171-1.871 6 6 0 0 1 -.02-.937 3.172 3.172 0 0 1 .98-.023 4.243 4.243 0 0 0 1.873-.171 3.3 3.3 0 0 0 1.125-.864v2.132a4.02 4.02 0 1 0 4.444 1.858h1.737a4.377 4.377 0 0 0 1.119 1.278 3.8 3.8 0 0 1 .7.707c-.038.16-.467.535-.7.737zm-4.3-.722a2 2 0 1 1 -2-2 2 2 0 0 1 2 2zm-4-16a2 2 0 1 1 2 2 2 2 0 0 1 -2-2zm9.875 14h.905l-.164.822a4.525 4.525 0 0 0 -.741-.822zm3.125 18.789a7.378 7.378 0 0 1 -4.754 4.082l4.573-22.871h.181zm6.755 4.084a7.289 7.289 0 0 1 -4.755-4.082v-18.791h.181zm-2.371-22.051-.164-.822h.905a4.525 4.525 0 0 0 -.741.822zm-14.384-2.822v-8h22v8zm5.948-17.053a6.663 6.663 0 0 0 1.181 0 3.3 3.3 0 0 1 .982.021 3.369 3.369 0 0 1 .662.647 3.093 3.093 0 0 0 2.227 1.385 3.092 3.092 0 0 0 2.227-1.38 3.338 3.338 0 0 1 .661-.647 3.238 3.238 0 0 1 .984-.022 6.652 6.652 0 0 0 1.18 0 6.668 6.668 0 0 0 0 1.182 3.291 3.291 0 0 1 -.023.983 3.357 3.357 0 0 1 -.646.661 3.091 3.091 0 0 0 -1.383 2.223 2.752 2.752 0 0 0 1.125 2h-8.25a2.747 2.747 0 0 0 1.125-2 3.091 3.091 0 0 0 -1.381-2.227 3.357 3.357 0 0 1 -.646-.661 3.291 3.291 0 0 1 -.023-.983 6.668 6.668 0 0 0 -.002-1.182zm15.052 5.053a2 2 0 1 1 2 2 2 2 0 0 1 -2-2zm4 16a2 2 0 1 1 -2-2 2 2 0 0 1 2 2zm.122-5.125a4.21 4.21 0 0 0 1.872.17 6.245 6.245 0 0 1 .938-.019 3.239 3.239 0 0 1 .022.98 4.2 4.2 0 0 0 .171 1.871 4.035 4.035 0 0 0 1.178 1.4 3.8 3.8 0 0 1 .7.707c-.039.16-.468.535-.7.737a4.035 4.035 0 0 0 -1.178 1.4 4.2 4.2 0 0 0 -.171 1.871 6 6 0 0 1 .02.937 3.2 3.2 0 0 1 -.98.023 4.2 4.2 0 0 0 -1.873.171 4.059 4.059 0 0 0 -1.4 1.178 3.8 3.8 0 0 1 -.707.7c-.16-.039-.535-.468-.737-.7a4.053 4.053 0 0 0 -1.4-1.178 3.087 3.087 0 0 0 -1.188-.2c-.233 0-.464.014-.684.027a6.013 6.013 0 0 1 -.938.02 3.239 3.239 0 0 1 -.022-.98 4.2 4.2 0 0 0 -.171-1.871 4.048 4.048 0 0 0 -1.178-1.4 3.767 3.767 0 0 1 -.7-.706c.039-.16.468-.535.7-.737a4.377 4.377 0 0 0 1.123-1.276h1.737a3.959 3.959 0 0 0 -.556 2 4 4 0 1 0 5-3.858v-2.132a3.31 3.31 0 0 0 1.122.865zm-7.076-14.869a6 6 0 0 1 -.02-.937 3.225 3.225 0 0 1 .98-.024 4.181 4.181 0 0 0 1.872-.17 4.053 4.053 0 0 0 1.4-1.178 3.8 3.8 0 0 1 .707-.7c.16.039.535.468.737.7a4.053 4.053 0 0 0 1.4 1.178 4.181 4.181 0 0 0 1.872.17 6.245 6.245 0 0 1 .938-.019 3.239 3.239 0 0 1 .022.98 4.2 4.2 0 0 0 .171 1.871 4.035 4.035 0 0 0 1.178 1.4 3.8 3.8 0 0 1 .7.707c-.039.16-.468.535-.7.737a4.035 4.035 0 0 0 -1.178 1.4 4.2 4.2 0 0 0 -.171 1.871 6 6 0 0 1 .02.937 3.236 3.236 0 0 1 -.98.023 4.2 4.2 0 0 0 -1.873.171 3.3 3.3 0 0 0 -1.121.867v-2.132a4.02 4.02 0 1 0 -4.444-1.858h-1.737a4.394 4.394 0 0 0 -1.119-1.279 3.767 3.767 0 0 1 -.7-.706c.039-.16.468-.535.7-.737a4.035 4.035 0 0 0 1.178-1.4 4.2 4.2 0 0 0 .168-1.872zm-14.046-7.991c.039-.16.468-.535.7-.737a4.035 4.035 0 0 0 1.178-1.4 4.2 4.2 0 0 0 .171-1.871 6 6 0 0 1 -.02-.937 3.256 3.256 0 0 1 .98-.024 4.209 4.209 0 0 0 1.872-.17 4.053 4.053 0 0 0 1.4-1.178 3.8 3.8 0 0 1 .707-.7c.16.039.535.468.737.7a4.053 4.053 0 0 0 1.4 1.178 4.2 4.2 0 0 0 1.872.171 6.141 6.141 0 0 1 .938-.02 3.239 3.239 0 0 1 .022.98 4.2 4.2 0 0 0 .171 1.871 4.035 4.035 0 0 0 1.178 1.4 3.416 3.416 0 0 1 .694.722 3.416 3.416 0 0 1 -.694.722 4.035 4.035 0 0 0 -1.178 1.4 4.2 4.2 0 0 0 -.171 1.871 6 6 0 0 1 .02.937 3.256 3.256 0 0 1 -.98.024 4.2 4.2 0 0 0 -1.872.17 4.053 4.053 0 0 0 -1.4 1.178 3.8 3.8 0 0 1 -.707.7c-.16-.039-.535-.468-.737-.7a4.053 4.053 0 0 0 -1.4-1.178 3.087 3.087 0 0 0 -1.188-.2c-.233 0-.464.014-.684.027a6.142 6.142 0 0 1 -.938.02 3.239 3.239 0 0 1 -.022-.98 4.2 4.2 0 0 0 -.171-1.871 4.035 4.035 0 0 0 -1.178-1.4 3.8 3.8 0 0 1 -.7-.705zm-11.3 11.263a4.035 4.035 0 0 0 1.178-1.4 4.2 4.2 0 0 0 .171-1.871 6 6 0 0 1 -.02-.937 3.141 3.141 0 0 1 .98-.023 4.228 4.228 0 0 0 1.873-.171 4.059 4.059 0 0 0 1.4-1.178 3.8 3.8 0 0 1 .707-.7c.16.039.535.468.737.7a4.053 4.053 0 0 0 1.4 1.178 4.211 4.211 0 0 0 1.872.171 6.144 6.144 0 0 1 .938-.02 3.239 3.239 0 0 1 .022.98 4.2 4.2 0 0 0 .171 1.871 4.035 4.035 0 0 0 1.178 1.4 3.8 3.8 0 0 1 .7.707c-.039.16-.468.535-.7.737a4.377 4.377 0 0 0 -1.126 1.278h-1.737a3.959 3.959 0 0 0 .556-2 4 4 0 1 0 -5 3.858v2.132a3.3 3.3 0 0 0 -1.122-.865 3.087 3.087 0 0 0 -1.188-.2c-.233 0-.464.014-.684.027a6.141 6.141 0 0 1 -.938.02 3.239 3.239 0 0 1 -.022-.98 4.2 4.2 0 0 0 -.171-1.871 4.035 4.035 0 0 0 -1.178-1.4 3.8 3.8 0 0 1 -.7-.707c.041-.159.47-.534.703-.736z"/><path d="m23 30h18v2h-18z"/></g></g></svg>