<svg  viewBox="0 0 52 60"  xmlns="http://www.w3.org/2000/svg"><g id="Page-1" fill="none" fill-rule="evenodd"><g id="039---Bouquet-Of-Flowers" fill-rule="nonzero" transform="translate(-1 -1)"><path id="Shape" d="m32.749 47h-11.5c-.4167554-.0001565-.7897189-.2587604-.936-.649l-2.25-6c-.1151514-.3071935-.0723018-.6513301.1146652-.9209058.186967-.2695756.4942683-.4302991.8223348-.4300942h16c.3278898.0001231.6348881.1609815.8216196.4305052.1867315.2695238.2294697.6134669.1143804.9204948l-2.25 6c-.1464095.3905823-.5198787.6492605-.937.649z" fill="#ffeb3a"/><path id="Shape" d="m35 39h-3c.3278898.0001231.6348881.1609815.8216196.4305052.1867315.2695238.2294697.6134669.1143804.9204948l-2.25 6c-.1462811.3902396-.5192446.6488435-.936.649h3c.4167554-.0001565.7897189-.2587604.936-.649l2.25-6c.1150893-.3070279.0723511-.650971-.1143804-.9204948-.1867315-.2695237-.4937298-.4303821-.8216196-.4305052z" fill="#fdd834"/><path id="Shape" d="m35 57h-2.88l.77 1.55c.1559692.3095182.1405453.6777279-.0407631.9731178-.1813083.29539-.5026437.4758333-.8492369.4768822h-10c-.3465932-.0010489-.6679286-.1814922-.8492369-.4768822-.1813084-.2953899-.1967323-.6635996-.0407631-.9731178l.77-1.55h-2.88c-.3465932-.0010489-.6679286-.1814922-.8492369-.4768822-.1813084-.2953899-.1967323-.6635996-.0407631-.9731178l4.27-8.55h9.24l4.27 8.55c.1559692.3095182.1405453.6777279-.0407631.9731178-.1813083.29539-.5026437.4758333-.8492369.4768822z" fill="#ffdc00"/><path id="Shape" d="m35.89 55.55-4.27-8.55h-3l4.27 8.55c.1559692.3095182.1405453.6777279-.0407631.9731178-.1813083.29539-.5026437.4758333-.8492369.4768822h-2.88l.77 1.55c.1559692.3095182.1405453.6777279-.0407631.9731178-.1813083.29539-.5026437.4758333-.8492369.4768822h3c.3465932-.0010489.6679286-.1814922.8492369-.4768822.1813084-.2953899.1967323-.6635996.0407631-.9731178l-.77-1.55h2.88c.3465932-.0010489.6679286-.1814922.8492369-.4768822.1813084-.2953899.1967323-.6635996.0407631-.9731178z" fill="#fec108"/><path id="Shape" d="m41.89 24.45-7.27 14.55h-15.24l-7.27-14.55c-.1559692-.3095182-.1405453-.6777279.0407631-.9731178.1813083-.29539.5026437-.4758333.8492369-.4768822h6.22l-.19-.76c-.069704-.2979272-.0005941-.6113918.1879269-.8523878.1885211-.240996.4761275-.3835399.7820731-.3876122h14c.3059456.0040723.593552.1466162.7820731.3876122.188521.240996.2576309.5544606.1879269.8523878l-.19.76h6.22c.3465932.0010489.6679286.1814922.8492369.4768822.1813084.2953899.1967323.6635996.0407631.9731178z" fill="#ffdc00"/><path id="Shape" d="m31.97 22.24-.19.76h3l.19-.76c.069704-.2979272.0005941-.6113918-.1879269-.8523878-.1885211-.240996-.4761275-.3835399-.7820731-.3876122h-3c.3059456.0040723.593552.1466162.7820731.3876122.188521.240996.2576309.5544606.1879269.8523878z" fill="#fec108"/><path id="Shape" d="m41 23h-3c.3465932.0010489.6679286.1814922.8492369.4768822.1813084.2953899.1967323.6635996.0407631.9731178l-7.27 14.55h3l7.27-14.55c.1559692-.3095182.1405453-.6777279-.0407631-.9731178-.1813083-.29539-.5026437-.4758333-.8492369-.4768822z" fill="#fec108"/><path id="Shape" d="m31 17.5c.0227697 1.3273438-.5231168 2.6010789-1.5 3.5-1.3997967 1.3338415-3.6002033 1.3338415-5 0-.9836924-.9357778-1.5271048-2.2430291-1.4966453-3.6003805.0304595-1.3573515.6319659-2.6389104 1.6566453-3.5296195.5670437.7134888 1.4286248 1.1292901 2.34 1.1292901s1.7729563-.4158013 2.34-1.1292901c1.0716355.8983624 1.681411 2.2317871 1.66 3.63z" fill="#e91e63"/><path id="Shape" d="m30.63 15.63c-.2616913-.6931999-.7077399-1.3017624-1.29-1.76-.5025441.6303921-1.2410458 1.0278245-2.044 1.1.6989605 1.1134936.9020634 2.4679719.560435 3.7375009s-1.1970551 2.3391586-2.360435 2.9514991c1.3403243.6310529 2.9309506.3705878 4-.655 1.460396-1.3803016 1.9121856-3.5213219 1.134-5.374z" fill="#ad1457"/><path id="Shape" d="m31 6.5c.0216987 1.39827326-.5881306 2.73181573-1.66 3.63-.5670437-.71348879-1.4286248-1.12929008-2.34-1.12929008s-1.7729563.41580129-2.34 1.12929008c-1.0697726-.89978041-1.6791199-2.23226873-1.66-3.63-.1298491-2.34434976 1.6565945-4.35409879 4-4.5 2.3431471.14643179 4.1292919 2.15584467 4 4.5z" fill="#e91e63"/><path id="Shape" d="m30.57 4.47c-.3710659-.97004215-1.1221501-1.74649692-2.0793347-2.1495717-.9571846-.40307479-2.0374539-.39781129-2.9906653.0145717 1.1631634.61546516 2.0178824 1.68705173 2.3593164 2.95794484.341434 1.27089312.1388082 2.62654248-.5593164 3.74205516.8029542.07217548 1.5414559.46960791 2.044 1.1 1.6258248-1.40389336 2.1258789-3.71450245 1.226-5.665z" fill="#ad1457"/><path id="Shape" d="m30 12c.0054775 1.4688872-1.0497424 2.7273522-2.4970882 2.9780506-1.4473458.2506985-2.8643562-.5795453-3.3532348-1.9647013s.0930719-2.9209154 1.3771364-3.63424415c1.2840645-.71332872 2.8954414-.39601547 3.8131866.75089485.4273163.5295488.6602556 1.1895435.66 1.87z" fill="#ffdc00"/><path id="Shape" d="m37 12c-.1459012 2.3434055-2.1556502 4.1298491-4.5 4-.6418011.0029258-1.2776716-.1228882-1.87-.37-.2616913-.6931999-.7077399-1.3017624-1.29-1.76.8804429-1.0912162.8804429-2.6487838 0-3.74.5822601-.45823758 1.0283087-1.06680006 1.29-1.76.5923284-.24711182 1.2281989-.37292578 1.87-.37 2.343961-.12873515 4.3530381 1.65711116 4.5 4z" fill="#e91e63"/><path id="Shape" d="m36.6 10.36c-.8169609-1.49230979-2.3992481-2.40308978-4.1-2.36-.499845.00559325-.9957764.08892322-1.47.247 1.7029049.4688503 2.9050509 1.9879257 2.97 3.753-.0650009 1.7643995-1.2660714 3.2831386-2.968 3.753.4735546.1579987.9688153.2413294 1.468.247 1.7971446.0537488 3.4532883-.9690477 4.21-2.6.4216342-.97845.3812478-2.0945819-.11-3.04z" fill="#ad1457"/><path id="Shape" d="m24.66 13.87c-.5779353.4623999-1.0230375 1.0696712-1.29 1.76-2.2969518 1.0008483-4.9748856.0186456-6.08-2.23-.4216342-.97845-.3812478-2.0945819.11-3.04 1.1948639-2.08440759 3.7634643-2.94060771 5.97-1.99.2669625.69032885.7120647 1.29760008 1.29 1.76-.8804429 1.0912162-.8804429 2.6487838 0 3.74z" fill="#e91e63"/><path id="Shape" d="m17.29 13.4c-.3132087 1.0657962-.9195869 2.0221414-1.75 2.76l-3.99-4.49c-.77474-.8863744-1.79970934-1.517393-2.94-1.81-.24-1.66-.34-2.89.66-4.1.03716068-.05806528.08077134-.11173995.13-.16.6066118-.6090038 1.2441192-1.18643191 1.91-1.73.4117224-.36649467 1.0423745-.330713 1.41.08 3.089 3.476 2.293 2.58 3.32 3.74.6747965.75864814 1.1431316 1.67810012 1.36 2.67-.4913891.9453809-.5317778 2.0615769-.11 3.04z" fill="#9d27b0"/><path id="Shape" d="m17.4 10.36c-.2168684-.99189988-.6852035-1.91135186-1.36-2.67-1.025-1.158-.355-.4-3.32-3.74-.3676255-.410713-.9982776-.44649467-1.41-.08l-.932.82c2.279 2.565 1.692 1.9 2.662 3 .6747965.75864814 1.1431316 1.67810012 1.36 2.67-.4913891.9453809-.5317778 2.0615769-.11 3.04-.0970237.3212346-.2218282.633413-.373.933l1.623 1.827c.8304131-.7378586 1.4367913-1.6942038 1.75-2.76-.4216342-.97845-.3812478-2.0945819.11-3.04z" fill="#6a1b9a"/><path id="Shape" d="m15.54 16.16c-.655.579-.324.286-1.5 1.33-2.4809184 2.1947324-6.27035191 1.9665611-8.47-.51l-3.32-3.73c-.36508151-.4177206-.32489878-1.0517148.09-1.42.63750598-.6593131 1.38117439-1.2069235 2.2-1.62 2.40280478-1.11376742 5.25163583-.52043028 7.01 1.46z" fill="#9d27b0"/><path id="Shape" d="m11.55 11.67c-1.4985026-1.68688727-3.81669628-2.39045905-6-1.821.021 0 .042 0 .063.011 1.14029066.292607 2.16526002.9236256 2.94 1.81l3.99 4.49c-.655.579-.324.286-1.5 1.33-.706047.630544-1.55472108 1.0801045-2.473 1.31 1.9278596.5035335 3.9798434.0117327 5.47-1.311 1.164-1.033.845-.751 1.5-1.33z" fill="#6a1b9a"/><path id="Shape" d="m8.61 9.86c-1.35561457-.36555917-2.79669925-.24163297-4.07.35-.71493548-1.5493452-.93156018-3.28234285-.62-4.96.08537839-.30900629.34339325-.53965594.66-.59 1.63866149-.11681658 3.27416244.2667764 4.69 1.1-1 1.21-.9 2.44-.66 4.1z" fill="#673ab7"/><path id="Shape" d="m45.39 9.86c-1.1402907.292607-2.16526.9236256-2.94 1.81l-3.99 4.49c-.8304131-.7378586-1.4367913-1.6942038-1.75-2.76.4216342-.97845.3812478-2.0945819-.11-3.04.2168684-.99189988.6852035-1.91135186 1.36-2.67 1.025-1.158.355-.4 3.32-3.74.3676255-.410713.9982776-.44649467 1.41-.08l1.5 1.32c1.52 1.417 1.498 2.61 1.2 4.67z" fill="#9d27b0"/><path id="Shape" d="m44.19 5.19-1.5-1.32c-.4117224-.36649467-1.0423745-.330713-1.41.08l-.658.74.568.5c1.52 1.417 1.5 2.609 1.2 4.67-1.1402907.292607-2.16526.9236256-2.94 1.81l-2.367 2.663c.3366678.6922348.8042872 1.312671 1.377 1.827l3.99-4.49c.77474-.8863744 1.7997093-1.517393 2.94-1.81.298-2.06.319-3.255-1.2-4.67z" fill="#6a1b9a"/><path id="Shape" d="m51.75 13.25-3.32 3.73c-2.1996481 2.4765611-5.9890816 2.7047324-8.47.51-1.164-1.033-.845-.751-1.5-1.33l3.99-4.49c1.7583642-1.98043028 4.6071952-2.57376742 7.01-1.46.8189252.4129145 1.5626192.9605438 2.2 1.62.4148988.3682852.4550815 1.0022794.09 1.42z" fill="#9d27b0"/><path id="Shape" d="m51.66 11.83c-.637506-.6593131-1.3811744-1.2069235-2.2-1.62-1.2535375-.58081036-2.6698371-.7084081-4.007-.361.3458443.08979088.6828783.2106144 1.007.361.8189252.4129145 1.5626192.9605438 2.2 1.62.4148988.3682852.4550815 1.0022794.09 1.42l-3.32 3.73c-.7940549.8949561-1.8395893 1.5295955-3 1.821 2.1834053.5747516 4.5043545-.1296565 6-1.821l3.32-3.73c.3650815-.4177206.3248988-1.0517148-.09-1.42z" fill="#6a1b9a"/><path id="Shape" d="m49.46 10.21c-1.2733008-.59163297-2.7143854-.71555917-4.07-.35.24-1.66.34-2.89-.66-4.1 1.4158376-.8332236 3.0513385-1.21681658 4.69-1.1.3166068.05034406.5746216.28099371.66.59.3115602 1.67765715.0949355 3.4106548-.62 4.96z" fill="#673ab7"/><path id="Shape" d="m50.08 5.25c-.0853784-.30900629-.3433932-.53965594-.66-.59-.8581494-.10887933-1.7297191-.02936651-2.554.233.1002216.09910906.1738252.22189648.214.357.2994288 1.48538267.1522395 3.02617304-.423 4.428.9627009-.05288887 1.9237818.1297165 2.8.532.7159508-1.54902348.9336252-3.2820336.623-4.96z" fill="#4527a0"/><path id="Shape" d="m23 6.5c-.0029258.64180108.1228882 1.2776716.37 1.87-.5923284-.24711182-1.2281989-.37292578-1.87-.37-1.7007519-.04308978-3.2830391.86769021-4.1 2.36-.2168684-.99189988-.6852035-1.91135186-1.36-2.67l-.77-.87c.3682675-1.90023526 1.4761356-3.57642532 3.08-4.66.2058496-.12800151.4495875-.18098801.69-.15 1.7109647.26708524 3.2689739 1.14013822 4.39 2.46-.2832034.63931675-.4296678 1.33076472-.43 2.03z" fill="#60a917"/><path id="Shape" d="m38.73 6.82-.77.87c-.6747965.75864814-1.1431316 1.67810012-1.36 2.67-.8169609-1.49230979-2.3992481-2.40308978-4.1-2.36-.6418011-.00292578-1.2776716.12288818-1.87.37.2471118-.5923284.3729258-1.22819892.37-1.87-.0003322-.69923528-.1467966-1.39068325-.43-2.03 1.1210261-1.31986178 2.6790353-2.19291476 4.39-2.46.2404125-.03098801.4841504.02199849.69.15 1.6038644 1.08357468 2.7117325 2.75976474 3.08 4.66z" fill="#60a917"/><path id="Shape" d="m24.5 21h-4.5c-.2947555-.0011798-.5741899.1311839-.76.36-1.1630637-1.7811112-2.5853919-3.3787025-4.22-4.74l.52-.46c.8304131-.7378586 1.4367913-1.6942038 1.75-2.76.7567117 1.6309523 2.4128554 2.6537488 4.21 2.6.6418011.0029258 1.2776716-.1228882 1.87-.37-.2471118.5923284-.3729258 1.2281989-.37 1.87-.0227697 1.3273438.5231168 2.6010789 1.5 3.5z" fill="#549414"/><path id="Shape" d="m19.03 22.24.19.76h-4.22c-1.8-.6-2.89-2.65-3.46-4.19.9290104-.228226 1.7875858-.6815538 2.5-1.32l.98-.87c1.6346081 1.3612975 3.0569363 2.9588888 4.22 4.74-.2096232.2413789-.288038.5699746-.21.88z" fill="#60a917"/><path id="Shape" d="m38.98 16.62c-1.6346081 1.3612975-3.0569363 2.9588888-4.22 4.74-.1858101-.2288161-.4652445-.3611798-.76-.36h-4.5c.9768832-.8989211 1.5227697-2.1726562 1.5-3.5.0029258-.6418011-.1228882-1.2776716-.37-1.87.5923284.2471118 1.2281989.3729258 1.87.37 1.7971446.0537488 3.4532883-.9690477 4.21-2.6.3132087 1.0657962.9195869 2.0221414 1.75 2.76z" fill="#549414"/><path id="Shape" d="m42.46 18.81c-.57 1.54-1.66 3.59-3.46 4.19h-4.22l.19-.76c.078038-.3100254-.0003768-.6386211-.21-.88 1.1630637-1.7811112 2.5853919-3.3787025 4.22-4.74l.98.87c.7124142.6384462 1.5709896 1.091774 2.5 1.32z" fill="#60a917"/><path id="Shape" d="m39.96 17.49-.98-.87c-.5265005.3909007-1.0168059.8283267-1.465 1.307.5882253.4119478 1.2476902.7113347 1.945.883-.57 1.54-1.66 3.59-3.46 4.19h3c1.8-.6 2.89-2.65 3.46-4.19-.9290104-.228226-1.7875858-.6815538-2.5-1.32z" fill="#549414"/><path id="Shape" d="m35.51 41.5c2.3131406.6885284 4.4352982 1.9036348 6.2 3.55.1996382.2056348.3027222.486276.2836577.7722438-.0190645.2859679-.1584896.5504418-.3836577.7277562l-1.59 1.24c-.3853787.3026757-.9343802.2771407-1.29-.06-1.3422962-1.1569203-2.9231474-2.003683-4.63-2.48z" fill="#ffdc00"/><g fill="#000"><path id="Shape" d="m2.957 4.975c-.34676117 1.59433448-.22237718 3.25510392.358 4.78-.31716477.19818591-.61810865.4212188-.9.667l-.748.664c-.39671612.3522884-.63719737.8477726-.66851766 1.3774044-.0313203.5296318.14908719 1.0500057.50151766 1.4465956l3.32 3.738c1.32931328 1.4998655 3.23884179 2.3564764 5.243 2.352.2849516-.0079472.5691496-.0333279.851-.076.345473.8022986.7953604 1.5554733 1.338 2.24-.5199667.2021878-.929686.6155634-1.1272463 1.1373058-.1975604.5217424-.1643952 1.1028185.0912463 1.5986942l6.711 13.432c-.2236445.1374579-.4174632.3183554-.57.532-.3735467.5390089-.459113 1.2269025-.229 1.841l2.25 6c.2410742.6192007.7739352 1.0782406 1.422 1.225l-3.581 7.17c-.3120172.6191952-.2810677 1.3558197.0817896 1.9466597.3628573.5908401 1.0058459.9515882 1.6992104.9533403h1.265l-.053.106c-.3097176.6198049-.2765708 1.3557584.0876109 1.9452113.3641818.589453 1.0075089.9484188 1.7003891.9487887h10c.6947884.0010227 1.3403254-.3586134 1.7051109-.9499369.3647854-.5913236.396545-1.3295969.0838891-1.9500631l-.053-.1h1.264c.6938986-.0007135 1.3378417-.3610455 1.7014214-.9520663s.3948335-1.3282623.0825786-1.9479337l-3.584-7.17c.647977-.1479523 1.1801202-.6081438 1.42-1.228l.074-.2c1.2296863.4313507 2.3656959 1.0935421 3.347 1.951.3677168.350473.8560172.5462944 1.364.547.4453322-.0010947.877795-.1494681 1.23-.422l1.594-1.244c.4489367-.3535772.7263423-.8813767.7629745-1.4516565s-.1709652-1.1292338-.5709745-1.5373435c-1.6111367-1.5317534-3.5261857-2.7078341-5.621-3.452l.072-.191c.230113-.6140975.1445467-1.3019911-.229-1.841-.1525368-.2136446-.3463555-.3945421-.57-.532l6.708-13.429c.2568748-.4960654.2910645-1.0778638.0940604-1.6006018-.1970041-.5227379-.6066762-.9372582-1.1270604-1.1403982.5426396-.6845267.992527-1.4377014 1.338-2.24 2.287207.3535147 4.5937347-.5073617 6.09-2.273l3.324-3.736c.3523084-.3967177.532543-.9171686.501035-1.4468038-.0315081-.5296352-.2721764-1.0250465-.669035-1.3771962l-.748-.663c-.280294-.2455665-.5795593-.46859433-.895-.667.5804242-1.52627712.7048007-3.18833607.358-4.784-.1898766-.68276267-.7617215-1.19124315-1.462-1.3-1.5933273-.15512233-3.1978861.14664295-4.626.87-.038-.037-.063-.066-.1-.1l-1.499-1.314c-.392356-.36186995-.9165302-.54600018-1.449-.509-.529801.03116232-1.0256636.27100301-1.379.667l-1.4 1.578c-.593226-1.46259846-1.6257051-2.70506735-2.955-3.556-.4006931-.24993577-.875809-.35280685-1.344-.291-1.5107493.21286484-2.9260368.86366762-4.071 1.872-.8852728-1.18845463-2.2800647-1.88870862-3.762-1.88870862s-2.8767272.70025399-3.762 1.88870862c-1.1461683-1.00905237-2.5628473-1.66020324-4.075-1.873-.4679182-.06120259-.9425277.04277296-1.342.294-1.3281695.85052753-2.3596173 2.0923181-2.952 3.554l-1.407-1.584c-.3525087-.39288297-.8460389-.630482-1.373-.661-.5283988-.03893767-1.0494346.14197753-1.44.5l-1.524 1.341c-.029.028-.052.055-.081.082-1.4261022-.72188498-3.02799696-1.0236058-4.619-.87-.70314159.10753953-1.27777869.61758867-1.468 1.303zm3.363 11.345-3.32-3.737.748-.665c.91155616-.8144317 2.09161283-1.2638076 3.314-1.262.1 0 .2 0 .3.009 1.32479403.0747529 2.56460262.6764723 3.443 1.671l3.32 3.738-.747.664c-2.0657075 1.8299246-5.22272428 1.6429547-7.058-.418zm25.03-7.129c.3712964-.12215809.7591496-.18657546 1.15-.191 1.7906119-.12495379 3.3496255 1.2113435 3.5 3-.1503745 1.7886565-1.7093881 3.1249538-3.5 3-.391504-.0044253-.7800162-.0688401-1.152-.191-.1989981-.3975257-.449118-.7673266-.744-1.1.5272676-1.074818.5272676-2.333182 0-3.408.2963122-.33565023.5471349-.70885831.746-1.11zm3.126 10.868c-.1557844-.0383711-.3155617-.0581754-.476-.059h-2.552c.36452-.7829689.5529437-1.6363368.552-2.5 0-.189-.036-.369-.053-.554.184.017.364.054.553.054 1.4986857.0119664 2.9427161-.5622008 4.024-1.6.2722932.4262273.5901646.8215547.948 1.179-1.1055284 1.0635366-2.1086095 2.2286642-2.996 3.48zm-14.476-.059c-.1604383.0008246-.3202156.0206289-.476.059-.8885056-1.2525539-1.8929354-2.4186969-3-3.483.3578354-.3574453.6757068-.7527727.948-1.179 1.0817995 1.0398656 2.5275128 1.6152079 4.028 1.603.181 0 .353-.036.53-.051-.017.182-.03.366-.03.551-.0009437.8636632.18748 1.7170311.552 2.5zm4-2.5c-.0056226-.8000978.2414483-1.5815556.706-2.233 1.3768454.9819042 3.2257208.9794926 4.6-.006.1664428.2345355.3031531.4888099.407.757.1940989.4697501.2917023.9737506.287 1.482.1249538 1.7906119-1.2113435 3.3496255-3 3.5-1.7886565-.1503745-3.1249538-1.7093881-3-3.5zm5-5.5c0 1.1045695-.8954305 2-2 2s-2-.8954305-2-2 .8954305-2 2-2 2 .8954305 2 2zm-5.6-1.709c-.5306968 1.0775342-.5306968 2.3404658 0 3.418-.2941488.3341017-.5454262.7036273-.748 1.1-.3719346.1223602-.7604779.1867801-1.152.191-1.7906119.1249538-3.3496255-1.2113435-3.5-3 .1503745-1.7886565 1.7093881-3.12495379 3.5-3 .3908504.00442454.7787036.06884191 1.15.191.2031972.39648017.4551497.76601057.75 1.1zm-8.691 7.942.329-.292c1.1346579 1.0681442 2.1542285 2.2522805 3.042 3.533-.0505732.1708548-.0774904.3478351-.08.526h-2.793c-1.0693492-.5615719-1.9002092-1.4900756-2.34-2.615.6701522-.2847454 1.2911338-.6735339 1.84-1.152zm4.291 21.767h16l-2.25 6h-11.5zm13.735 16-1.223-2.447c-.158024-.3224865-.4768371-.5354742-.8352525-.5580026-.3584153-.0225283-.7013887.1488625-.8985495.4490237-.1971608.3001611-.2182297.6829949-.055198 1.0029789l2.277 4.553h-10l2.276-4.553c.1630317-.319984.1419628-.7028178-.055198-1.0029789-.1971608-.3001612-.5401342-.471552-.8985495-.4490237-.3584154.0225284-.6772285.2355161-.8352525.5580026l-1.222 2.447h-2.26l3.995-8h8l4 8zm8.265-10.239-1.574 1.246c-1.1758247-1.0437939-2.5431234-1.8493658-4.026-2.372l.7-1.87c1.82624.6421447 3.4960856 1.663136 4.9 2.996zm-7-7.761h-14l-7-14h5.44l2.31 9.243c.1113683.4445697.5106935.7565296.969.757.0819433.0003256.1635963-.009755.243-.03.5357071-.1342174.8611901-.677286.727-1.213l-2.689-10.757h4.134c1.6780573 1.3333252 4.0539427 1.3333252 5.732 0h4.134l-2.689 10.757c-.1341901.535714.1912929 1.0787826.727 1.213.0794037.020245.1610567.0303256.243.03.4583065-.0004704.8576317-.3124303.969-.757l2.31-9.243h5.44zm4.791-16h-2.791c-.0017013-.1779427-.0272625-.3548534-.076-.526.8877715-1.2807195 1.9073421-2.4648558 3.042-3.533l.329.292c.5490257.4782509 1.1699717.8670171 1.84 1.152-.4402874 1.1252564-1.2718988 2.0538063-2.342 2.615zm8.887-5.68c-1.8351089 2.0621448-4.9933483 2.2491605-7.059.418l-.747-.664 3.32-3.738c1.8337147-2.0641739 4.9934626-2.2513055 7.058-.418l.748.664zm1.471-10.689c.1852239 1.10802295.0794358 2.24515872-.307 3.3-.7512103-.21447026-1.5329585-.30200712-2.313-.259.0878356-.84094465-.0352022-1.6905241-.358-2.472.9304994-.43251837 1.9535877-.62799763 2.978-.569zm-7.119-1.01 1.476 1.3c.131.123.253.244.353.353.6616603.78132298.893803 1.83944446.62 2.826-1.0695748.39903211-2.024615 1.0549569-2.781 1.91l-3.245 3.654c-.2867297-.3832861-.5152012-.8068681-.678-1.257.3358064-1.020391.2946498-2.1273618-.116-3.12.2012334-.71386325.5596571-1.37364989 1.049-1.931zm-6.908-1.614c1.242605.83691554 2.1341565 2.10145943 2.505 3.553l-.415.467c-.3625504.41202317-.6750577.86551119-.931 1.351-1.0545773-.89741761-2.3962903-1.38641007-3.781-1.378-.189 0-.369.037-.554.054.017-.185.054-.365.054-.554-.000674-.60557479-.093745-1.2075016-.276-1.785.9170147-.92339469 2.1098472-1.52297031 3.398-1.708zm-8.122-.007c1.7886565.15037454 3.1249538 1.70938809 3 3.5.0028277.51744131-.0992257 1.03008995-.3 1.507-.1021822.25977452-.2365658.50569655-.4.732-1.374476-.98488157-3.2229594-.98729263-4.6-.006-.4624209-.65216566-.7073732-1.43356345-.7-2.233-.1249538-1.79061191 1.2113435-3.34962546 3-3.5zm-8.087 0c1.2759492.19610371 2.4549994.79737376 3.363 1.715-.1824077.5774627-.2754824 1.17941312-.276 1.785 0 .185.013.369.03.551-.177-.015-.349-.051-.53-.051-1.3847097-.00841007-2.7264227.48058239-3.781 1.378-.2561708-.48565891-.5686571-.93945219-.931-1.352l-.414-.467c.3747289-1.4605964 1.2798582-2.72934609 2.539-3.559zm-6.941 1.614 3.32 3.739c.4891664.5578543.8475577 1.21792284 1.049 1.932-.4106498.9926382-.4518064 2.099609-.116 3.12-.1627988.4501319-.3912703.8737139-.678 1.257l-3.247-3.654c-.756049-.8540453-1.7103548-1.5092506-2.779-1.908-.27410395-.98480716-.04308197-2.04144256.617-2.822.1-.113.225-.234.332-.335zm-7.121 1.017c1.02391312-.05789891 2.04633351.13717492 2.977.568-.32155492.78075677-.44422466 1.62913659-.357 2.469-.78002933-.04257673-1.5617064.04495217-2.313.259-.38614369-1.05351818-.49193311-2.1892899-.307-3.296z"/><path id="Shape" d="m25 44h4c.5522847 0 1-.4477153 1-1s-.4477153-1-1-1h-4c-.5522847 0-1 .4477153-1 1s.4477153 1 1 1z"/></g></g></g></svg>