<?xml version="1.0" encoding="iso-8859-1"?>
<!-- Generator: Adobe Illustrator 21.0.0, SVG Export Plug-In . SVG Version: 6.00 Build 0)  -->
<svg xmlns="http://www.w3.org/2000/svg" xmlns:xlink="http://www.w3.org/1999/xlink" version="1.1" id="Capa_1" x="0px" y="0px" viewBox="0 0 512 512" style="enable-background:new 0 0 512 512;" xml:space="preserve" >
<g>
	<g>
		<path style="fill:#93F9EF;" d="M89.61,160.04c0,0,38.209,75.957,166.39,75.957s166.39-75.957,166.39-75.957    S384.182,84.083,256,84.083S89.61,160.04,89.61,160.04z"/>
	</g>
	<g>
		<g>
			<path style="fill:#FF6C8C;" d="M186.312,7.574c-14.29,0-26.963,6.897-34.871,17.551c-4.524,6.079-7.493,13.381-8.321,21.318v0.01     c9.028,7.311,16.501,16.461,21.853,26.882c5.07-12.603,14.441-23.994,26.206-32.235c6.796-4.756,14.38-8.463,22.399-10.745v-0.01     V7.574H186.312z"/>
		</g>
		<g>
			<path style="fill:#FF4A7A;" d="M190.351,7.574v16.221c-11.77,5.44-25.709,15.395-36.02,33.618h-0.034     c4.13,4.866,7.734,10.193,10.676,15.923c4.949-12.304,14.005-23.444,25.378-31.633l0,0c0.277-0.199,0.549-0.406,0.828-0.602     c6.796-4.756,14.38-8.463,22.399-10.745v-0.01V17.294v-9.72H190.351z"/>
		</g>
		<g>
			<path style="fill:#FF6C8C;" d="M151.441,25.125c-4.524,6.079-7.493,13.381-8.321,21.318     c-9.907-8.028-21.672-13.845-34.568-16.683v-0.01V7.574h14.138C135.213,7.574,146.079,14.704,151.441,25.125z"/>
		</g>
		<g>
			<path style="fill:#FF4A7A;" d="M145.98,34.891c-5.274-8.046-15.587-13.403-25.688-13.403h-11.74v8.263l0,0v0.01     c4.03,0.887,7.949,2.064,11.736,3.51c3.029,1.156,5.974,2.484,8.822,3.97c4.985,2.602,9.674,5.691,14.009,9.203     C143.542,42.401,144.525,38.526,145.98,34.891z"/>
		</g>
		<g>
			<path style="fill:#FF6C8C;" d="M164.973,73.336c5.07-12.603,14.441-23.994,26.206-32.235c6.796-4.756,14.38-8.463,22.399-10.745     c5.877-1.676,11.987-2.585,18.178-2.585v70.69c0,19.521-7.917,37.193-20.702,49.988c-12.795,12.795-30.468,20.702-49.988,20.702     c-39.041,0-70.69-31.649-70.69-70.69v-70.69c6.241,0,12.33,0.687,18.178,1.989c12.896,2.838,24.661,8.655,34.568,16.683v0.01     C152.148,53.765,159.621,62.914,164.973,73.336z"/>
		</g>
		<g>
			<path style="fill:#FF4A7A;" d="M203.779,33.953v64.509c0,19.983-8.105,38.075-21.193,51.174     c-8.827,8.827-19.93,15.358-32.343,18.692c3.528,0.542,7.142,0.825,10.822,0.825c19.521,0,37.193-7.907,49.988-20.702     c12.785-12.795,20.702-30.467,20.702-49.988v-70.69c-6.19,0-12.3,0.909-18.178,2.585     C210.225,31.311,206.954,32.528,203.779,33.953z"/>
		</g>
	</g>
	<g>
		<g>
			<path style="fill:#FF6C8C;" d="M376.181,7.574c-14.29,0-26.963,6.897-34.871,17.551c-4.524,6.079-7.493,13.381-8.321,21.318v0.01     c9.028,7.311,16.501,16.461,21.853,26.882c5.07-12.603,14.441-23.994,26.206-32.235c6.796-4.756,14.38-8.463,22.399-10.745v-0.01     V7.574H376.181z"/>
		</g>
		<g>
			<path style="fill:#FF4A7A;" d="M380.221,7.574v16.221c-11.77,5.44-25.709,15.395-36.02,33.618h-0.034     c4.13,4.866,7.734,10.193,10.676,15.923c4.949-12.304,14.005-23.444,25.378-31.633l0,0c0.277-0.199,0.549-0.406,0.828-0.602     c6.796-4.756,14.38-8.463,22.399-10.745v-0.01V17.294v-9.72H380.221z"/>
		</g>
		<g>
			<path style="fill:#FF6C8C;" d="M341.311,25.125c-4.524,6.079-7.493,13.381-8.321,21.318     c-9.907-8.028-21.672-13.845-34.568-16.683v-0.01V7.574h14.138C325.082,7.574,335.949,14.704,341.311,25.125z"/>
		</g>
		<g>
			<path style="fill:#FF4A7A;" d="M335.85,34.891c-5.274-8.046-15.587-13.403-25.688-13.403h-11.74v8.263l0,0v0.01     c4.03,0.887,7.949,2.064,11.736,3.51c3.029,1.156,5.974,2.484,8.822,3.97c4.985,2.602,9.674,5.691,14.009,9.203     C333.412,42.401,334.395,38.526,335.85,34.891z"/>
		</g>
		<g>
			<path style="fill:#FF6C8C;" d="M354.843,73.336c5.07-12.603,14.441-23.994,26.206-32.235c6.796-4.756,14.38-8.463,22.399-10.745     c5.877-1.676,11.987-2.585,18.178-2.585v70.69c0,19.521-7.917,37.193-20.702,49.988c-12.795,12.795-30.468,20.702-49.988,20.702     c-39.041,0-70.69-31.649-70.69-70.69v-70.69c6.241,0,12.33,0.687,18.178,1.989c12.896,2.838,24.661,8.655,34.568,16.683v0.01     C342.018,53.765,349.491,62.914,354.843,73.336z"/>
		</g>
		<g>
			<path style="fill:#FF4A7A;" d="M393.648,33.953v64.509c0,19.983-8.105,38.075-21.193,51.174     c-8.827,8.827-19.93,15.358-32.343,18.692c3.528,0.542,7.142,0.825,10.822,0.825c19.521,0,37.193-7.907,49.988-20.702     c12.785-12.795,20.702-30.467,20.702-49.988v-70.69c-6.19,0-12.3,0.909-18.178,2.585     C400.095,31.311,396.824,32.528,393.648,33.953z"/>
		</g>
	</g>
	<g>
		<g>
			<path style="fill:#FF6C8C;" d="M281.247,74.598c-14.29,0-26.963,6.897-34.871,17.551c-4.524,6.079-7.493,13.381-8.321,21.318     v0.01c9.028,7.311,16.501,16.461,21.853,26.882c5.07-12.603,14.441-23.994,26.206-32.235c6.796-4.756,14.38-8.463,22.399-10.745     v-0.01V74.598H281.247z"/>
		</g>
		<g>
			<path style="fill:#FF4A7A;" d="M285.286,74.598v16.221c-11.77,5.44-25.709,15.395-36.02,33.618h-0.034     c4.13,4.866,7.734,10.193,10.676,15.923c4.949-12.303,14.005-23.444,25.378-31.633l0,0c0.277-0.199,0.549-0.406,0.828-0.602     c6.796-4.756,14.38-8.463,22.399-10.745v-0.01V84.318v-9.72H285.286z"/>
		</g>
		<g>
			<path style="fill:#FF6C8C;" d="M246.376,92.149c-4.524,6.079-7.493,13.381-8.321,21.318     c-9.907-8.028-21.672-13.845-34.568-16.683v-0.01V74.598h14.138C230.148,74.598,241.014,81.727,246.376,92.149z"/>
		</g>
		<g>
			<path style="fill:#FF4A7A;" d="M240.915,101.914c-5.274-8.046-15.587-13.403-25.688-13.403h-11.74v8.263l0,0v0.01     c4.03,0.887,7.949,2.064,11.736,3.51c3.029,1.156,5.974,2.484,8.822,3.97c4.985,2.602,9.674,5.691,14.009,9.203     C238.477,109.425,239.46,105.55,240.915,101.914z"/>
		</g>
		<g>
			<path style="fill:#FF6C8C;" d="M259.908,140.36c5.069-12.603,14.441-23.994,26.206-32.235c6.796-4.756,14.38-8.463,22.399-10.745     c5.877-1.676,11.987-2.585,18.178-2.585v70.69c0,19.521-7.917,37.193-20.702,49.988c-12.795,12.795-30.468,20.702-49.988,20.702     c-39.041,0-70.69-31.649-70.69-70.69v-70.69c6.241,0,12.33,0.687,18.178,1.989c12.896,2.838,24.661,8.655,34.568,16.683v0.01     C247.083,120.789,254.556,129.938,259.908,140.36z"/>
		</g>
		<g>
			<path style="fill:#FF4A7A;" d="M298.714,100.976v64.509c0,19.983-8.105,38.075-21.193,51.174     c-8.827,8.827-19.93,15.358-32.343,18.692c3.528,0.542,7.142,0.825,10.822,0.825c19.521,0,37.193-7.907,49.988-20.702     c12.785-12.795,20.702-30.467,20.702-49.988v-70.69c-6.19,0-12.3,0.909-18.178,2.585     C305.16,98.335,301.889,99.551,298.714,100.976z"/>
		</g>
	</g>
	<g>
		<path style="fill:#BDFFFA;" d="M256,504.426h75.066c0-95.264-75.066-121.183-75.066-121.183s-75.066,25.92-75.066,121.183H256z"/>
	</g>
	<g>
		<path style="fill:#93F9EF;" d="M256,383.243c0,0-9.931,3.434-22.566,12.379c22.108,15.651,52.5,48.186,52.5,108.804h45.132    C331.066,409.162,256,383.243,256,383.243z"/>
	</g>
	<g>
		<path style="fill:#BDFFFA;" d="M256,383.243h4.426c89.45,0,161.964-72.514,161.964-161.964V160.04    c0,0-38.208,75.957-166.39,75.957S89.61,160.04,89.61,160.04v61.238c0,89.45,72.514,161.964,161.964,161.964H256z"/>
	</g>
	<g>
		<path style="fill:#93F9EF;" d="M373.807,207.006v14.272c0,82.724-62.021,150.955-142.099,160.75    c6.511,0.796,13.139,1.214,19.866,1.214H256h4.426c89.45,0,161.964-72.514,161.964-161.964V160.04    C422.39,160.04,409.552,185.553,373.807,207.006z"/>
	</g>
	<g>
		<path style="fill:#FFBBCC;" d="M262.158,403.873h-12.316c-5.523,0-10-4.477-10-10v-20.394c0-5.523,4.477-10,10-10h12.316    c5.523,0,10,4.477,10,10v20.394C272.158,399.396,267.681,403.873,262.158,403.873z"/>
	</g>
	<g>
		<path style="fill:#FF99AA;" d="M262.059,363.479h-12.118c-0.128,0-0.252,0.014-0.379,0.019c5.4,0.201,9.72,4.63,9.72,10.08v20.197    c0,5.449-4.32,9.879-9.72,10.079c0.127,0.005,0.251,0.019,0.379,0.019h12.118c5.577,0,10.099-4.521,10.099-10.099v-20.197    C272.158,368,267.636,363.479,262.059,363.479z"/>
	</g>
	<g>
		<path style="fill:#FFBBCC;" d="M239.842,392.765l-36.583,15.434c-13.314,5.617-28.048-4.158-28.048-18.609v-12.695    c0-14.219,14.302-23.986,27.546-18.813l37.085,14.486V392.765z"/>
	</g>
	<g>
		<path style="fill:#FF99AA;" d="M225.199,366.848v16.259l-45.497,19.194c5.382,6.61,14.777,9.601,23.557,5.897l36.583-15.434    v-20.197L225.199,366.848z"/>
	</g>
	<g>
		<path style="fill:#FFBBCC;" d="M272.158,392.765l36.583,15.434c13.314,5.617,28.048-4.158,28.048-18.609v-12.695    c0-14.219-14.302-23.986-27.546-18.813l-37.085,14.486V392.765z"/>
	</g>
	<g>
		<path style="fill:#FF99AA;" d="M321.641,357.328v26.651c0,7.225-7.367,12.113-14.024,9.305l-35.459-14.959v14.44l36.583,15.434    c13.314,5.617,28.048-4.158,28.048-18.609v-12.695C336.789,367.173,330.103,359.536,321.641,357.328z"/>
	</g>
	<path d="M429.867,158.899c-0.072-0.475-0.185-0.954-0.346-1.407c-0.104-0.29-0.224-0.576-0.364-0.855   c-0.167-0.332-3.691-7.239-11.775-16.809c7.686-12.297,11.817-26.513,11.817-41.366V83.314c0-4.183-3.391-7.574-7.574-7.574   s-7.574,3.391-7.574,7.574v15.148c0,13.527-4.238,26.404-12.071,37.129c-0.185,0.223-0.354,0.454-0.51,0.692   c-1.792,2.385-3.757,4.663-5.903,6.811c-11.919,11.919-27.77,18.484-44.632,18.484c-5.68,0-11.266-0.751-16.671-2.228V94.795   c0-4.183-3.391-7.574-7.574-7.574c-3.526,0-7.07,0.27-10.604,0.795V74.598c0-4.183-3.391-7.574-7.574-7.574h-20.694V35.72   c3.024,0.3,6.024,0.78,8.976,1.438c11.308,2.488,22.081,7.662,31.178,14.97c0.081,0.072,0.165,0.143,0.25,0.212   c8.32,6.738,15.009,14.966,19.883,24.457c1.356,2.638,4.137,4.241,7.086,4.106c2.963-0.137,5.572-1.989,6.678-4.74   c4.471-11.116,12.825-21.364,23.523-28.856c6.29-4.403,13.062-7.655,20.133-9.667c2.826-0.806,5.675-1.402,8.523-1.784   l-0.005,13.119c-0.002,4.183,3.389,7.575,7.571,7.577c0.001,0,0.002,0,0.003,0c4.181,0,7.572-3.389,7.574-7.571l0.008-21.207   c0.001-2.009-0.797-3.936-2.217-5.357c-1.421-1.421-3.348-2.219-5.357-2.219c-3.526,0-7.07,0.271-10.604,0.795V7.574   c0-4.183-3.391-7.574-7.574-7.574h-27.266c-12.637,0-24.793,4.784-34.071,13.098C334.66,4.855,324.029,0,312.56,0h-14.138   c-4.183,0-7.574,3.391-7.574,7.574v13.243c-3.511-0.408-7.054-0.62-10.604-0.62c-4.183,0-7.574,3.391-7.574,7.574v39.997   c-9.48,1.634-18.341,5.944-25.495,12.353c-2.328-2.575-4.968-4.812-7.846-6.679V27.771c0-4.183-3.391-7.574-7.574-7.574   c-3.526,0-7.07,0.271-10.604,0.795V7.574c0-4.183-3.391-7.574-7.574-7.574h-27.266c-12.637,0-24.793,4.784-34.071,13.098   C144.791,4.855,134.159,0,122.69,0h-14.138c-4.183,0-7.574,3.391-7.574,7.574v13.243c-3.511-0.408-7.054-0.62-10.604-0.62   c-4.183,0-7.574,3.391-7.574,7.574v70.69c0,15.165,4.349,29.327,11.846,41.331c-8.106,9.589-11.637,16.512-11.804,16.844   c-0.14,0.279-0.26,0.564-0.364,0.854c-0.018,0.051-0.029,0.104-0.046,0.155c-0.104,0.311-0.184,0.626-0.246,0.945   c-0.02,0.102-0.038,0.204-0.054,0.308c-0.058,0.379-0.097,0.759-0.097,1.141v0v26.3c0,4.183,3.391,7.574,7.574,7.574   s7.574-3.391,7.574-7.574c0-1.044,0-2.088,0-3.133c6.924,7.734,14.708,14.706,23.038,20.892   c9.372,6.959,21.595,14.43,36.989,20.983c0.58,0.344,1.208,0.611,1.874,0.792c23.064,9.543,53.073,16.955,91.149,17.64   c1.906,0.14,3.825,0.235,5.766,0.235c1.955,0,3.894-0.095,5.824-0.236c38.048-0.691,68.039-8.101,91.091-17.639   c0.666-0.18,1.294-0.448,1.874-0.792c15.394-6.553,27.617-14.024,36.989-20.983c8.331-6.186,16.115-13.157,23.038-20.892v38.07   c0,56.576-30.33,107.796-79.543,135.065c-4.932-4.496-11.483-7.24-18.662-7.24c-3.452,0-6.858,0.647-10.124,1.923l-30.383,11.869   c-3.231-4.238-8.317-6.99-14.045-6.99h-12.118c-5.729,0-10.814,2.752-14.045,6.99l-30.383-11.869   c-3.266-1.276-6.673-1.923-10.124-1.923c-7.179,0-13.729,2.744-18.661,7.24c-49.214-27.268-79.544-78.488-79.544-135.065   c0-4.183-3.391-7.574-7.574-7.574s-7.574,3.391-7.574,7.574c0,31.937,8.929,63.052,25.823,89.98   c15.151,24.151,36.103,44.057,60.866,57.95c-0.703,2.443-1.088,5.02-1.088,7.686v12.695c0,15.325,12.453,27.792,27.759,27.792   c1.786,0,3.555-0.177,5.299-0.52c-3.005,3.975-5.792,8.129-8.337,12.469c-12.607,21.498-18.999,46.764-18.999,75.095   c0,4.183,3.391,7.574,7.574,7.574h150.132c4.183,0,7.574-3.391,7.574-7.574c0-28.535-6.482-53.953-19.266-75.549   c-2.472-4.176-5.167-8.18-8.065-12.014c1.742,0.342,3.511,0.519,5.295,0.519c0.001,0,0,0,0.001,0c7.24,0,14.116-2.802,19.361-7.888   c5.415-5.251,8.397-12.321,8.397-19.904v-12.695c0-2.667-0.385-5.244-1.088-7.687c24.764-13.893,45.716-33.8,60.867-57.95   c16.893-26.928,25.823-58.041,25.823-89.979V160.04C429.963,159.657,429.925,159.277,429.867,158.899   c0.007,0.048,0.015,0.097,0.022,0.145c-0.046-0.303-0.012-0.08,0,0C429.882,158.995,429.874,158.947,429.867,158.899   C429.851,158.796,429.925,159.277,429.867,158.899z M376.181,15.148h19.692v9.725c-6.699,2.447-13.129,5.797-19.17,10.025   c-9.004,6.307-16.674,14.269-22.39,23.124c-3.836-5.303-8.243-10.164-13.172-14.562c1.07-4.978,3.183-9.699,6.25-13.821   C354.228,20.43,364.721,15.148,376.181,15.148z M312.56,15.148c7.888,0,15.136,3.705,19.765,9.874   c-1.657,2.792-3.04,5.727-4.133,8.772c-6.933-4.272-14.422-7.614-22.197-9.896v-8.75H312.56z M249.941,371.053h12.118   c1.393,0,2.525,1.133,2.525,2.525v19.187v1.01c0,1.392-1.132,2.525-2.525,2.525h-12.118c-1.393,0-2.525-1.133-2.525-2.525v-1.01   v-19.187C247.416,372.185,248.548,371.053,249.941,371.053z M195.396,402.234c-6.065,0-12.611-4.834-12.611-12.644v-12.695   c0-2.56,0.712-4.793,1.871-6.648c0.027-0.038,0.052-0.079,0.078-0.119c2.391-3.729,6.623-5.876,10.654-5.876   c1.558,0,3.11,0.298,4.613,0.885l32.266,12.605v10l-31.953,13.48C198.721,401.893,197.065,402.234,195.396,402.234z    M323.324,496.852H188.676c2.205-49.202,25.737-77.589,46.611-93.209c3.179,4.705,8.561,7.804,14.654,7.804h12.118   c6.093,0,11.475-3.099,14.654-7.804C297.686,419.329,321.128,447.714,323.324,496.852z M329.215,389.589   c0,3.45-1.348,6.657-3.795,9.03c-2.369,2.297-5.582,3.614-8.817,3.614c-1.669,0-3.324-0.341-4.919-1.014l-30.616-12.917   c-0.025-0.011-0.049-0.021-0.074-0.031l-1.263-0.533v-10l32.266-12.605c1.503-0.587,3.055-0.885,4.613-0.885   c4.038,0,8.278,2.155,10.667,5.896c0.02,0.03,0.039,0.061,0.06,0.09c1.162,1.857,1.877,4.092,1.877,6.657V389.589z    M406.281,153.803c0.549-0.549,1.069-1.118,1.599-1.68c2.568,3.222,4.453,5.95,5.716,7.917   c-5.676,8.82-12.929,16.666-20.752,23.616c-8.772,7.793-18.482,14.474-28.764,20.113c-1.837,1.008-3.698,1.972-5.571,2.909v-30.317   C376.556,174.641,393.298,166.786,406.281,153.803C406.83,153.254,393.298,166.786,406.281,153.803z M340.451,214.509   c-10.365,3.852-21.049,6.8-31.889,8.969c0.949-0.862,1.878-1.745,2.784-2.652c12.555-12.565,20.296-28.646,22.348-46.011   c3.181,0.716,6.408,1.224,9.667,1.537v37.047C342.394,213.777,341.424,214.147,340.451,214.509   C340.013,214.672,341.204,214.229,340.451,214.509z M281.247,82.172h19.692v9.725c-6.7,2.448-13.13,5.798-19.17,10.025   c-9.005,6.307-16.674,14.269-22.39,23.125c-3.836-5.303-8.243-10.165-13.172-14.563c1.07-4.978,3.183-9.699,6.25-13.821   C259.293,87.454,269.786,82.172,281.247,82.172z M237.391,92.045c-1.657,2.792-3.04,5.727-4.133,8.772   c-6.933-4.272-14.422-7.614-22.197-9.895v-8.75h6.564C225.514,82.172,232.762,85.876,237.391,92.045z M186.312,15.148h19.692v9.725   c-6.699,2.447-13.129,5.797-19.17,10.025c-9.004,6.306-16.674,14.269-22.391,23.124c-3.836-5.303-8.242-10.165-13.172-14.562   c1.07-4.978,3.184-9.699,6.251-13.821C164.358,20.43,174.851,15.148,186.312,15.148z M122.69,15.148   c7.888,0,15.136,3.705,19.765,9.873c-1.657,2.792-3.04,5.727-4.133,8.772c-6.933-4.272-14.422-7.614-22.197-9.896v-8.75H122.69z    M97.949,35.72c3.024,0.3,6.024,0.78,8.976,1.438c11.308,2.488,22.082,7.662,31.177,14.969c0.082,0.072,0.166,0.143,0.251,0.213   c8.32,6.738,15.009,14.966,19.883,24.457c1.355,2.638,4.144,4.241,7.086,4.106c2.963-0.137,5.572-1.989,6.678-4.74   c4.471-11.116,12.825-21.364,23.523-28.856c6.29-4.403,13.062-7.654,20.133-9.667c2.827-0.807,5.677-1.402,8.526-1.785v31.725   c-2.145-0.354-4.332-0.557-6.556-0.557h-14.138c-4.183,0-7.574,3.391-7.574,7.574v13.243c-3.511-0.408-7.054-0.62-10.604-0.62   c-4.183,0-7.574,3.391-7.574,7.574v24.4c0,4.183,3.391,7.574,7.574,7.574c4.183,0,7.574-3.391,7.574-7.574v-16.452   c3.024,0.3,6.024,0.78,8.975,1.438c11.31,2.489,22.083,7.663,31.179,14.97c0.082,0.072,0.165,0.143,0.249,0.212   c8.32,6.738,15.009,14.966,19.883,24.457c1.355,2.638,4.141,4.249,7.086,4.106c2.963-0.137,5.572-1.989,6.678-4.74   c4.47-11.115,12.825-21.363,23.523-28.856c6.289-4.402,13.061-7.654,20.133-9.667c2.827-0.807,5.677-1.402,8.526-1.785v61.595   c-0.015,0.274-0.015,0.547,0,0.818v0.193c0,16.853-6.565,32.705-18.484,44.633c-10.689,10.689-24.543,17.054-39.449,18.258   c-1.712,0.029-3.436,0.047-5.183,0.047c-1.738,0-3.45-0.021-5.152-0.049c-32.322-2.626-57.835-29.693-57.958-62.651   c0.067-0.583,0.067-1.176-0.006-1.772v-9.42c0-4.183-3.391-7.574-7.574-7.574c-4.183,0-7.574,3.391-7.574,7.574v4.822   c-5.403,1.476-10.989,2.226-16.671,2.226c-34.803,0-63.116-28.314-63.116-63.116V35.72z M127.088,190.293   c-10.981-8.461-21.149-18.561-28.68-30.258c1.268-1.976,3.159-4.712,5.736-7.942c12.653,13.421,29.972,22.39,49.347,24.26v30.358   c-9.345-4.647-17.133-9.56-23.489-14.219C129.003,191.758,128.037,191.026,127.088,190.293   C126.849,190.109,128.037,191.026,127.088,190.293z M168.639,213.386v-37.033c3.261-0.313,6.49-0.821,9.672-1.537   c2.293,19.2,11.545,36.293,25.179,48.652C190.385,220.842,178.811,217.341,168.639,213.386z"/>
</g>















</svg>
