<svg  viewBox="-30 0 512 512"  xmlns="http://www.w3.org/2000/svg"><path d="m324.753906 418.417969-60-30c-5.082031-2.550781-8.289062-7.734375-8.289062-13.417969s3.207031-10.867188 8.289062-13.417969l60-30c7.398438-3.660156 16.40625-.703125 20.128906 6.707031 3.703126 7.414063.703126 16.421876-6.710937 20.128907l-33.164063 16.582031 33.164063 16.582031c7.414063 3.707031 10.414063 12.714844 6.710937 20.128907-3.691406 7.359374-12.648437 10.421874-20.128906 6.707031zm0 0" fill="#cc2e43"/><path d="m271.464844 360h-90c-8.402344 0-15 6.597656-15 15v122c0 8.398438 6.597656 15 15 15h90c8.398437 0 15-6.601562 15-15v-122c0-8.402344-6.601563-15-15-15zm0 0" fill="#ede9e8"/><path d="m286.464844 375v122c0 8.398438-6.601563 15-15 15h-45v-152h45c8.398437 0 15 6.597656 15 15zm0 0" fill="#dfd7d5"/><path d="m307.484375 238.390625c-2.550781 0-5.128906-.648437-7.484375-2.007813-7.179688-4.148437-9.640625-13.316406-5.492188-20.492187l30-51.976563c4.144532-7.175781 13.328126-9.652343 20.492188-5.492187 7.175781 4.148437 9.636719 13.316406 5.492188 20.492187l-30 51.976563c-2.78125 4.800781-7.824219 7.5-13.007813 7.5zm0 0" fill="#7984eb"/><path d="m241.464844 135v90c0 8.398438-6.601563 15-15 15-8.402344 0-15-6.601562-15-15v-90c0-8.402344 6.597656-15 15-15 8.398437 0 15 6.597656 15 15zm0 0" fill="#b5baf3"/><path d="m143.976562 238.390625c-5.183593 0-10.222656-2.695313-13.007812-7.5l-30-51.976563c-4.144531-7.175781-1.683594-16.347656 5.496094-20.492187 7.117187-4.160156 16.332031-1.683594 20.492187 5.492187l30 51.976563c4.144531 7.175781 1.683594 16.347656-5.492187 20.492187-2.359375 1.359376-4.9375 2.007813-7.488282 2.007813zm0 0" fill="#b5baf3"/><path d="m226.464844 240v-120c8.398437 0 15 6.597656 15 15v90c0 8.398438-6.601563 15-15 15zm0 0" fill="#7984eb"/><path d="m271.464844 0c-18 0-33.902344 7.800781-45 20.398438-11.101563-12.597657-27-20.398438-45-20.398438-8.402344 0-15 6.597656-15 15v75c0 33 27 60 60 60 32.996094 0 60-27 60-60v-75c0-8.402344-6.601563-15-15-15zm0 0" fill="#ec5569"/><path d="m226.464844 150v-129.601562c11.097656-12.597657 27-20.398438 45-20.398438 8.398437 0 15 6.597656 15 15v75c0 33-27 60-60 60zm0 0" fill="#cc2e43"/><path d="m39.503906 162.449219-37.5-64.949219c-1.9921872-3.441406-2.519531-7.542969-1.492187-11.382812 1.027343-3.835938 3.542969-7.117188 6.988281-9.109376 15.523438-8.9375 33.394531-10.109374 49.144531-4.878906 3.28125-16.304687 13.285157-31.171875 28.785157-40.121094 7.117187-4.160156 16.332031-1.699218 20.492187 5.492188l37.5 64.949219c16.550781 28.660156 6.804687 65.347656-21.957031 81.960937-29.027344 16.742188-65.53125 6.484375-81.960938-21.960937zm0 0" fill="#ec5569"/><path d="m330 184.410156c-28.71875-16.570312-38.554688-53.222656-21.972656-81.960937l37.5-64.949219c4.144531-7.179688 13.328125-9.652344 20.492187-5.492188 13.871094 8.011719 23.804688 20.945313 27.949219 36.429688.335938 1.230469.628906 2.460938.878906 3.691406 15.730469-5.304687 33.605469-4.070312 49.117188 4.878906 3.441406 1.992188 5.960937 5.273438 6.984375 9.109376 1.027343 3.839843.5 7.941406-1.492188 11.382812l-37.5 64.949219c-16.359375 28.320312-52.839843 38.757812-81.957031 21.960937zm0 0" fill="#cc2e43"/><path d="m345.261719 230.699219-47.726563 129.300781v.019531l-26.070312 29.980469h-90l-26.070313-30-47.730469-129.300781c-2.101562-4.800781-1.5-9.898438 1.5-14.097657 2.699219-4.203124 7.199219-6.601562 12.300782-6.601562h210c5.097656 0 9.597656 2.398438 12.296875 6.601562 3 4.199219 3.601562 9.296876 1.5 14.097657zm0 0" fill="#ede9e8"/><path d="m226.464844 390h45l26.070312-29.980469v-.019531l47.726563-129.300781c2.101562-4.800781 1.5-9.898438-1.5-14.097657-2.699219-4.203124-7.199219-6.601562-12.296875-6.601562h-105zm0 0" fill="#dfd7d5"/><path d="m211.453125 390c-7.003906 0-13.269531-4.929688-14.695313-12.0625l-18-90c-1.625-8.121094 3.644532-16.023438 11.769532-17.648438s16.023437 3.644532 17.648437 11.765626l18 90c1.625 8.125-3.644531 16.027343-11.765625 17.652343-.992187.195313-1.984375.292969-2.957031.292969zm0 0" fill="#d2c5c2"/><path d="m297.535156 360v.019531l-11.070312 29.980469h-120l-11.070313-30zm0 0" fill="#e63950"/><path d="m226.464844 390h60l11.070312-29.980469v-.019531h-71.070312zm0 0" fill="#cc2e43"/></svg>